<svg width="122" height="87" viewBox="0 0 122 87" fill="none" xmlns="http://www.w3.org/2000/svg">
<path fill-rule="evenodd" clip-rule="evenodd" d="M2.59576 10.2297C3.07364 10.2297 3.46104 10.6175 3.46104 11.0958V14.0185C3.46104 14.4968 3.07364 14.8846 2.59576 14.8846C2.11787 14.8846 1.73047 14.4968 1.73047 14.0185V11.0958C1.73047 10.6175 2.11787 10.2297 2.59576 10.2297ZM2.59576 21.9209C3.07364 21.9209 3.46104 22.3087 3.46104 22.7869V25.7097C3.46104 26.188 3.07364 26.5758 2.59576 26.5758C2.11787 26.5758 1.73047 26.188 1.73047 25.7097V22.7869C1.73047 22.3087 2.11787 21.9209 2.59576 21.9209ZM14.7221 35.9395C14.7221 35.4612 15.1095 35.0735 15.5874 35.0735H19.2992C19.7771 35.0735 20.1645 35.4612 20.1645 35.9395C20.1645 36.4178 19.7771 36.8055 19.2992 36.8055H15.5874C15.1095 36.8055 14.7221 36.4178 14.7221 35.9395ZM29.5696 35.9395C29.5696 35.4612 29.957 35.0735 30.4349 35.0735H34.1468C34.6247 35.0735 35.0121 35.4612 35.0121 35.9395C35.0121 36.4178 34.6247 36.8055 34.1468 36.8055H30.4349C29.957 36.8055 29.5696 36.4178 29.5696 35.9395ZM44.4172 35.9395C44.4172 35.4612 44.8046 35.0735 45.2824 35.0735H48.9943C49.4722 35.0735 49.8596 35.4612 49.8596 35.9395C49.8596 36.4178 49.4722 36.8055 48.9943 36.8055H45.2824C44.8046 36.8055 44.4172 36.4178 44.4172 35.9395ZM59.2647 35.9395C59.2647 35.4612 59.6521 35.0735 60.13 35.0735H62.8512V37.7933C62.8512 38.2716 62.4638 38.6594 61.9859 38.6594C61.508 38.6594 61.1206 38.2716 61.1206 37.7933V36.8055H60.13C59.6521 36.8055 59.2647 36.4178 59.2647 35.9395ZM61.9859 48.0502C62.4638 48.0502 62.8512 48.4379 62.8512 48.9162V52.6238C62.8512 53.1021 62.4638 53.4899 61.9859 53.4899C61.508 53.4899 61.1206 53.1021 61.1206 52.6238V48.9162C61.1206 48.4379 61.508 48.0502 61.9859 48.0502ZM61.9859 62.8807C62.4638 62.8807 62.8512 63.2684 62.8512 63.7467V67.4543C62.8512 67.9326 62.4638 68.3203 61.9859 68.3203C61.508 68.3203 61.1206 67.9326 61.1206 67.4543V63.7467C61.1206 63.2684 61.508 62.8807 61.9859 62.8807ZM113.353 76.1685L122.005 81.1684L113.353 86.1684V76.1685ZM61.9859 78.4486C62.4638 78.4486 62.8512 78.8363 62.8512 79.3146V80.3024H63.7676C64.2455 80.3024 64.6329 80.6901 64.6329 81.1684C64.6329 81.6467 64.2455 82.0344 63.7676 82.0344H61.1206V79.3146C61.1206 78.8363 61.508 78.4486 61.9859 78.4486ZM73.5926 81.1684C73.5926 80.6901 73.98 80.3024 74.4579 80.3024H78.0213C78.4992 80.3024 78.8866 80.6901 78.8866 81.1684C78.8866 81.6467 78.4992 82.0344 78.0213 82.0344H74.4579C73.98 82.0344 73.5926 81.6467 73.5926 81.1684ZM102.1 81.1684C102.1 80.6901 102.487 80.3024 102.965 80.3024H106.529C107.006 80.3024 107.394 80.6901 107.394 81.1684C107.394 81.6467 107.006 82.0344 106.529 82.0344H102.965C102.487 82.0344 102.1 81.6467 102.1 81.1684Z" fill="white"/>
<ellipse cx="3.02845" cy="2.16504" rx="2.16322" ry="2.16504" fill="white"/>
<ellipse cx="3.02845" cy="2.16504" rx="2.16322" ry="2.16504" fill="white"/>
<ellipse cx="3.02845" cy="2.16504" rx="2.16322" ry="2.16504" fill="white"/>
<ellipse cx="90.4224" cy="80.9724" rx="2.16322" ry="2.16504" fill="white"/>
<ellipse cx="90.4224" cy="80.9724" rx="2.16322" ry="2.16504" fill="white"/>
<ellipse cx="90.4224" cy="80.9724" rx="2.16322" ry="2.16504" fill="white"/>
<ellipse cx="3.02838" cy="35.0734" rx="3.0285" ry="3.03105" fill="white"/>
<ellipse cx="3.02838" cy="35.0734" rx="3.0285" ry="3.03105" fill="white"/>
<ellipse cx="3.02838" cy="35.0734" rx="3.0285" ry="3.03105" fill="white"/>
</svg>
