<svg width="191" height="117" viewBox="0 0 191 117" fill="none" xmlns="http://www.w3.org/2000/svg">
<rect x="0.499878" y="0.5" width="190" height="96.0321" fill="#3EA345" stroke="black"/>
<mask id="path-2-inside-1_2037_538" fill="white">
<path fill-rule="evenodd" clip-rule="evenodd" d="M184.315 75.6853L184.315 21.3474C176.404 21.3473 169.99 14.831 169.99 6.7926L169.99 6.79248L20.0551 6.79248C20.0551 6.79252 20.0551 6.79256 20.0551 6.7926C20.0551 14.831 13.6416 21.3474 5.73013 21.3474L5.73005 75.6853C13.6415 75.6853 20.0551 82.2017 20.0551 90.2401L169.99 90.2401C169.99 82.2018 176.404 75.6854 184.315 75.6853Z"/>
</mask>
<path fill-rule="evenodd" clip-rule="evenodd" d="M184.315 75.6853L184.315 21.3474C176.404 21.3473 169.99 14.831 169.99 6.7926L169.99 6.79248L20.0551 6.79248C20.0551 6.79252 20.0551 6.79256 20.0551 6.7926C20.0551 14.831 13.6416 21.3474 5.73013 21.3474L5.73005 75.6853C13.6415 75.6853 20.0551 82.2017 20.0551 90.2401L169.99 90.2401C169.99 82.2018 176.404 75.6854 184.315 75.6853Z" fill="white"/>
<path d="M184.315 21.3474L185.315 21.3474L185.315 20.3474L184.315 20.3474L184.315 21.3474ZM184.315 75.6853L184.315 76.6853L185.315 76.6853L185.315 75.6853L184.315 75.6853ZM169.99 6.7926L170.99 6.7926L169.99 6.7926ZM169.99 6.79248L170.99 6.79248L170.99 5.79248L169.99 5.79248L169.99 6.79248ZM20.0551 6.79248L20.0551 5.79248L19.0551 5.79248L19.0551 6.79248L20.0551 6.79248ZM5.73013 21.3474L5.73013 20.3474L4.73013 20.3474L4.73013 21.3474L5.73013 21.3474ZM5.73005 75.6853L4.73005 75.6853L4.73005 76.6853L5.73005 76.6853L5.73005 75.6853ZM20.0551 90.2401L19.0551 90.2401L19.0551 91.2401L20.0551 91.2401L20.0551 90.2401ZM169.99 90.2401L169.99 91.2401L170.99 91.2401L170.99 90.2401L169.99 90.2401ZM183.315 21.3474L183.315 75.6853L185.315 75.6853L185.315 21.3474L183.315 21.3474ZM168.99 6.7926C168.99 15.3682 175.836 22.3473 184.315 22.3474L184.315 20.3474C176.971 20.3473 170.99 14.2937 170.99 6.7926L168.99 6.7926ZM168.99 6.79248L168.99 6.7926L170.99 6.7926L170.99 6.79248L168.99 6.79248ZM20.0551 7.79248L169.99 7.79248L169.99 5.79248L20.0551 5.79248L20.0551 7.79248ZM19.0551 6.79248C19.0551 6.79248 19.0551 6.79248 19.0551 6.79248C19.0551 6.79248 19.0551 6.79248 19.0551 6.79248C19.0551 6.79248 19.0551 6.79248 19.0551 6.79248C19.0551 6.79248 19.0551 6.79248 19.0551 6.79248C19.0551 6.79248 19.0551 6.79248 19.0551 6.79248C19.0551 6.79248 19.0551 6.79248 19.0551 6.79248C19.0551 6.79248 19.0551 6.79248 19.0551 6.79248C19.0551 6.79248 19.0551 6.79248 19.0551 6.79248C19.0551 6.79248 19.0551 6.79248 19.0551 6.79248C19.0551 6.79248 19.0551 6.79248 19.0551 6.79248C19.0551 6.79248 19.0551 6.79248 19.0551 6.79248C19.0551 6.79248 19.0551 6.79248 19.0551 6.79248C19.0551 6.79248 19.0551 6.79248 19.0551 6.79248C19.0551 6.79248 19.0551 6.79248 19.0551 6.79248C19.0551 6.79248 19.0551 6.79248 19.0551 6.79248C19.0551 6.79248 19.0551 6.79248 19.0551 6.79248C19.0551 6.79248 19.0551 6.79248 19.0551 6.79248C19.0551 6.79248 19.0551 6.79248 19.0551 6.79248C19.0551 6.79248 19.0551 6.79248 19.0551 6.79248C19.0551 6.79248 19.0551 6.79248 19.0551 6.79248C19.0551 6.79248 19.0551 6.79248 19.0551 6.79248C19.0551 6.79249 19.0551 6.79249 19.0551 6.79249C19.0551 6.79249 19.0551 6.79249 19.0551 6.79249C19.0551 6.79249 19.0551 6.79249 19.0551 6.79249C19.0551 6.79249 19.0551 6.79249 19.0551 6.79249C19.0551 6.79249 19.0551 6.79249 19.0551 6.79249C19.0551 6.79249 19.0551 6.79249 19.0551 6.79249C19.0551 6.79249 19.0551 6.79249 19.0551 6.79249C19.0551 6.79249 19.0551 6.79249 19.0551 6.79249C19.0551 6.79249 19.0551 6.79249 19.0551 6.79249C19.0551 6.79249 19.0551 6.79249 19.0551 6.79249C19.0551 6.79249 19.0551 6.79249 19.0551 6.79249C19.0551 6.79249 19.0551 6.79249 19.0551 6.79249C19.0551 6.79249 19.0551 6.79249 19.0551 6.79249C19.0551 6.79249 19.0551 6.79249 19.0551 6.79249C19.0551 6.79249 19.0551 6.79249 19.0551 6.79249C19.0551 6.79249 19.0551 6.79249 19.0551 6.79249C19.0551 6.79249 19.0551 6.79249 19.0551 6.79249C19.0551 6.79249 19.0551 6.79249 19.0551 6.79249C19.0551 6.79249 19.0551 6.79249 19.0551 6.79249C19.0551 6.79249 19.0551 6.79249 19.0551 6.79249C19.0551 6.79249 19.0551 6.79249 19.0551 6.79249C19.0551 6.79249 19.0551 6.79249 19.0551 6.79249C19.0551 6.79249 19.0551 6.79249 19.0551 6.79249C19.0551 6.79249 19.0551 6.79249 19.0551 6.79249C19.0551 6.79249 19.0551 6.79249 19.0551 6.79249C19.0551 6.79249 19.0551 6.79249 19.0551 6.79249C19.0551 6.79249 19.0551 6.79249 19.0551 6.79249C19.0551 6.79249 19.0551 6.79249 19.0551 6.79249C19.0551 6.79249 19.0551 6.79249 19.0551 6.79249C19.0551 6.79249 19.0551 6.79249 19.0551 6.79249C19.0551 6.79249 19.0551 6.79249 19.0551 6.79249C19.0551 6.79249 19.0551 6.79249 19.0551 6.79249C19.0551 6.79249 19.0551 6.79249 19.0551 6.79249C19.0551 6.79249 19.0551 6.79249 19.0551 6.79249C19.0551 6.79249 19.0551 6.79249 19.0551 6.79249C19.0551 6.79249 19.0551 6.79249 19.0551 6.79249C19.0551 6.79249 19.0551 6.79249 19.0551 6.79249C19.0551 6.79249 19.0551 6.79249 19.0551 6.79249C19.0551 6.79249 19.0551 6.79249 19.0551 6.79249C19.0551 6.79249 19.0551 6.79249 19.0551 6.79249C19.0551 6.79249 19.0551 6.79249 19.0551 6.79249C19.0551 6.79249 19.0551 6.79249 19.0551 6.79249C19.0551 6.7925 19.0551 6.7925 19.0551 6.7925C19.0551 6.7925 19.0551 6.7925 19.0551 6.7925C19.0551 6.7925 19.0551 6.7925 19.0551 6.7925C19.0551 6.7925 19.0551 6.7925 19.0551 6.7925C19.0551 6.7925 19.0551 6.7925 19.0551 6.7925C19.0551 6.7925 19.0551 6.7925 19.0551 6.7925C19.0551 6.7925 19.0551 6.7925 19.0551 6.7925C19.0551 6.7925 19.0551 6.7925 19.0551 6.7925C19.0551 6.7925 19.0551 6.7925 19.0551 6.7925C19.0551 6.7925 19.0551 6.7925 19.0551 6.7925C19.0551 6.7925 19.0551 6.7925 19.0551 6.7925C19.0551 6.7925 19.0551 6.7925 19.0551 6.7925C19.0551 6.7925 19.0551 6.7925 19.0551 6.7925C19.0551 6.7925 19.0551 6.7925 19.0551 6.7925C19.0551 6.7925 19.0551 6.7925 19.0551 6.7925C19.0551 6.7925 19.0551 6.7925 19.0551 6.7925C19.0551 6.7925 19.0551 6.7925 19.0551 6.7925C19.0551 6.7925 19.0551 6.7925 19.0551 6.7925C19.0551 6.7925 19.0551 6.7925 19.0551 6.7925C19.0551 6.7925 19.0551 6.7925 19.0551 6.7925C19.0551 6.7925 19.0551 6.7925 19.0551 6.7925C19.0551 6.7925 19.0551 6.7925 19.0551 6.7925C19.0551 6.7925 19.0551 6.7925 19.0551 6.7925C19.0551 6.7925 19.0551 6.7925 19.0551 6.7925C19.0551 6.7925 19.0551 6.7925 19.0551 6.7925C19.0551 6.7925 19.0551 6.7925 19.0551 6.7925C19.0551 6.7925 19.0551 6.7925 19.0551 6.7925C19.0551 6.7925 19.0551 6.7925 19.0551 6.7925C19.0551 6.7925 19.0551 6.7925 19.0551 6.7925C19.0551 6.7925 19.0551 6.7925 19.0551 6.7925C19.0551 6.7925 19.0551 6.7925 19.0551 6.7925C19.0551 6.7925 19.0551 6.7925 19.0551 6.7925C19.0551 6.7925 19.0551 6.7925 19.0551 6.7925C19.0551 6.7925 19.0551 6.7925 19.0551 6.7925C19.0551 6.7925 19.0551 6.7925 19.0551 6.7925C19.0551 6.7925 19.0551 6.7925 19.0551 6.7925C19.0551 6.7925 19.0551 6.7925 19.0551 6.7925C19.0551 6.7925 19.0551 6.7925 19.0551 6.7925C19.0551 6.7925 19.0551 6.7925 19.0551 6.7925C19.0551 6.7925 19.0551 6.7925 19.0551 6.7925C19.0551 6.7925 19.0551 6.7925 19.0551 6.7925C19.0551 6.7925 19.0551 6.7925 19.0551 6.79251C19.0551 6.79251 19.0551 6.79251 19.0551 6.79251C19.0551 6.79251 19.0551 6.79251 19.0551 6.79251C19.0551 6.79251 19.0551 6.79251 19.0551 6.79251C19.0551 6.79251 19.0551 6.79251 19.0551 6.79251C19.0551 6.79251 19.0551 6.79251 19.0551 6.79251C19.0551 6.79251 19.0551 6.79251 19.0551 6.79251C19.0551 6.79251 19.0551 6.79251 19.0551 6.79251C19.0551 6.79251 19.0551 6.79251 19.0551 6.79251C19.0551 6.79251 19.0551 6.79251 19.0551 6.79251C19.0551 6.79251 19.0551 6.79251 19.0551 6.79251C19.0551 6.79251 19.0551 6.79251 19.0551 6.79251C19.0551 6.79251 19.0551 6.79251 19.0551 6.79251C19.0551 6.79251 19.0551 6.79251 19.0551 6.79251C19.0551 6.79251 19.0551 6.79251 19.0551 6.79251C19.0551 6.79251 19.0551 6.79251 19.0551 6.79251C19.0551 6.79251 19.0551 6.79251 19.0551 6.79251C19.0551 6.79251 19.0551 6.79251 19.0551 6.79251C19.0551 6.79251 19.0551 6.79251 19.0551 6.79251C19.0551 6.79251 19.0551 6.79251 19.0551 6.79251C19.0551 6.79251 19.0551 6.79251 19.0551 6.79251C19.0551 6.79251 19.0551 6.79251 19.0551 6.79251C19.0551 6.79251 19.0551 6.79251 19.0551 6.79251C19.0551 6.79251 19.0551 6.79251 19.0551 6.79251C19.0551 6.79251 19.0551 6.79251 19.0551 6.79251C19.0551 6.79251 19.0551 6.79251 19.0551 6.79251C19.0551 6.79251 19.0551 6.79251 19.0551 6.79251C19.0551 6.79251 19.0551 6.79251 19.0551 6.79251C19.0551 6.79251 19.0551 6.79251 19.0551 6.79251C19.0551 6.79251 19.0551 6.79251 19.0551 6.79251C19.0551 6.79251 19.0551 6.79251 19.0551 6.79251C19.0551 6.79251 19.0551 6.79251 19.0551 6.79251C19.0551 6.79251 19.0551 6.79251 19.0551 6.79251C19.0551 6.79251 19.0551 6.79251 19.0551 6.79251C19.0551 6.79251 19.0551 6.79251 19.0551 6.79251C19.0551 6.79251 19.0551 6.79251 19.0551 6.79251C19.0551 6.79251 19.0551 6.79251 19.0551 6.79251C19.0551 6.79251 19.0551 6.79251 19.0551 6.79251C19.0551 6.79251 19.0551 6.79251 19.0551 6.79251C19.0551 6.79251 19.0551 6.79251 19.0551 6.79251C19.0551 6.79251 19.0551 6.79251 19.0551 6.79251C19.0551 6.79251 19.0551 6.79251 19.0551 6.79251C19.0551 6.79251 19.0551 6.79252 19.0551 6.79252C19.0551 6.79252 19.0551 6.79252 19.0551 6.79252C19.0551 6.79252 19.0551 6.79252 19.0551 6.79252C19.0551 6.79252 19.0551 6.79252 19.0551 6.79252C19.0551 6.79252 19.0551 6.79252 19.0551 6.79252C19.0551 6.79252 19.0551 6.79252 19.0551 6.79252C19.0551 6.79252 19.0551 6.79252 19.0551 6.79252C19.0551 6.79252 19.0551 6.79252 19.0551 6.79252C19.0551 6.79252 19.0551 6.79252 19.0551 6.79252C19.0551 6.79252 19.0551 6.79252 19.0551 6.79252C19.0551 6.79252 19.0551 6.79252 19.0551 6.79252C19.0551 6.79252 19.0551 6.79252 19.0551 6.79252C19.0551 6.79252 19.0551 6.79252 19.0551 6.79252C19.0551 6.79252 19.0551 6.79252 19.0551 6.79252C19.0551 6.79252 19.0551 6.79252 19.0551 6.79252C19.0551 6.79252 19.0551 6.79252 19.0551 6.79252C19.0551 6.79252 19.0551 6.79252 19.0551 6.79252C19.0551 6.79252 19.0551 6.79252 19.0551 6.79252C19.0551 6.79252 19.0551 6.79252 19.0551 6.79252C19.0551 6.79252 19.0551 6.79252 19.0551 6.79252C19.0551 6.79252 19.0551 6.79252 19.0551 6.79252C19.0551 6.79252 19.0551 6.79252 19.0551 6.79252C19.0551 6.79252 19.0551 6.79252 19.0551 6.79252C19.0551 6.79252 19.0551 6.79252 19.0551 6.79252C19.0551 6.79252 19.0551 6.79252 19.0551 6.79252C19.0551 6.79252 19.0551 6.79252 19.0551 6.79252C19.0551 6.79252 19.0551 6.79252 19.0551 6.79252C19.0551 6.79252 19.0551 6.79252 19.0551 6.79252C19.0551 6.79252 19.0551 6.79252 19.0551 6.79252C19.0551 6.79252 19.0551 6.79252 19.0551 6.79252C19.0551 6.79252 19.0551 6.79252 19.0551 6.79252C19.0551 6.79252 19.0551 6.79252 19.0551 6.79252C19.0551 6.79252 19.0551 6.79252 19.0551 6.79252C19.0551 6.79252 19.0551 6.79252 19.0551 6.79252C19.0551 6.79252 19.0551 6.79252 19.0551 6.79252C19.0551 6.79252 19.0551 6.79252 19.0551 6.79252C19.0551 6.79252 19.0551 6.79252 19.0551 6.79252C19.0551 6.79252 19.0551 6.79252 19.0551 6.79252C19.0551 6.79252 19.0551 6.79252 19.0551 6.79252C19.0551 6.79252 19.0551 6.79252 19.0551 6.79252C19.0551 6.79252 19.0551 6.79252 19.0551 6.79252C19.0551 6.79252 19.0551 6.79252 19.0551 6.79252C19.0551 6.79252 19.0551 6.79253 19.0551 6.79253C19.0551 6.79253 19.0551 6.79253 19.0551 6.79253C19.0551 6.79253 19.0551 6.79253 19.0551 6.79253C19.0551 6.79253 19.0551 6.79253 19.0551 6.79253C19.0551 6.79253 19.0551 6.79253 19.0551 6.79253C19.0551 6.79253 19.0551 6.79253 19.0551 6.79253C19.0551 6.79253 19.0551 6.79253 19.0551 6.79253C19.0551 6.79253 19.0551 6.79253 19.0551 6.79253C19.0551 6.79253 19.0551 6.79253 19.0551 6.79253C19.0551 6.79253 19.0551 6.79253 19.0551 6.79253C19.0551 6.79253 19.0551 6.79253 19.0551 6.79253C19.0551 6.79253 19.0551 6.79253 19.0551 6.79253C19.0551 6.79253 19.0551 6.79253 19.0551 6.79253C19.0551 6.79253 19.0551 6.79253 19.0551 6.79253C19.0551 6.79253 19.0551 6.79253 19.0551 6.79253C19.0551 6.79253 19.0551 6.79253 19.0551 6.79253C19.0551 6.79253 19.0551 6.79253 19.0551 6.79253C19.0551 6.79253 19.0551 6.79253 19.0551 6.79253C19.0551 6.79253 19.0551 6.79253 19.0551 6.79253C19.0551 6.79253 19.0551 6.79253 19.0551 6.79253C19.0551 6.79253 19.0551 6.79253 19.0551 6.79253C19.0551 6.79253 19.0551 6.79253 19.0551 6.79253C19.0551 6.79253 19.0551 6.79253 19.0551 6.79253C19.0551 6.79253 19.0551 6.79253 19.0551 6.79253C19.0551 6.79253 19.0551 6.79253 19.0551 6.79253C19.0551 6.79253 19.0551 6.79253 19.0551 6.79253C19.0551 6.79253 19.0551 6.79253 19.0551 6.79253C19.0551 6.79253 19.0551 6.79253 19.0551 6.79253C19.0551 6.79253 19.0551 6.79253 19.0551 6.79253C19.0551 6.79253 19.0551 6.79253 19.0551 6.79253C19.0551 6.79253 19.0551 6.79253 19.0551 6.79253C19.0551 6.79253 19.0551 6.79253 19.0551 6.79253C19.0551 6.79253 19.0551 6.79253 19.0551 6.79253C19.0551 6.79253 19.0551 6.79253 19.0551 6.79253C19.0551 6.79253 19.0551 6.79253 19.0551 6.79253C19.0551 6.79253 19.0551 6.79253 19.0551 6.79253C19.0551 6.79253 19.0551 6.79253 19.0551 6.79253C19.0551 6.79253 19.0551 6.79253 19.0551 6.79253C19.0551 6.79253 19.0551 6.79253 19.0551 6.79253C19.0551 6.79253 19.0551 6.79253 19.0551 6.79253C19.0551 6.79253 19.0551 6.79253 19.0551 6.79253C19.0551 6.79253 19.0551 6.79253 19.0551 6.79253C19.0551 6.79254 19.0551 6.79254 19.0551 6.79254C19.0551 6.79254 19.0551 6.79254 19.0551 6.79254C19.0551 6.79254 19.0551 6.79254 19.0551 6.79254C19.0551 6.79254 19.0551 6.79254 19.0551 6.79254C19.0551 6.79254 19.0551 6.79254 19.0551 6.79254C19.0551 6.79254 19.0551 6.79254 19.0551 6.79254C19.0551 6.79254 19.0551 6.79254 19.0551 6.79254C19.0551 6.79254 19.0551 6.79254 19.0551 6.79254C19.0551 6.79254 19.0551 6.79254 19.0551 6.79254C19.0551 6.79254 19.0551 6.79254 19.0551 6.79254C19.0551 6.79254 19.0551 6.79254 19.0551 6.79254C19.0551 6.79254 19.0551 6.79254 19.0551 6.79254C19.0551 6.79254 19.0551 6.79254 19.0551 6.79254C19.0551 6.79254 19.0551 6.79254 19.0551 6.79254C19.0551 6.79254 19.0551 6.79254 19.0551 6.79254C19.0551 6.79254 19.0551 6.79254 19.0551 6.79254C19.0551 6.79254 19.0551 6.79254 19.0551 6.79254C19.0551 6.79254 19.0551 6.79254 19.0551 6.79254C19.0551 6.79254 19.0551 6.79254 19.0551 6.79254C19.0551 6.79254 19.0551 6.79254 19.0551 6.79254C19.0551 6.79254 19.0551 6.79254 19.0551 6.79254C19.0551 6.79254 19.0551 6.79254 19.0551 6.79254C19.0551 6.79254 19.0551 6.79254 19.0551 6.79254C19.0551 6.79254 19.0551 6.79254 19.0551 6.79254C19.0551 6.79254 19.0551 6.79254 19.0551 6.79254C19.0551 6.79254 19.0551 6.79254 19.0551 6.79254C19.0551 6.79254 19.0551 6.79254 19.0551 6.79254C19.0551 6.79254 19.0551 6.79254 19.0551 6.79254C19.0551 6.79254 19.0551 6.79254 19.0551 6.79254C19.0551 6.79254 19.0551 6.79254 19.0551 6.79254C19.0551 6.79254 19.0551 6.79254 19.0551 6.79254C19.0551 6.79254 19.0551 6.79254 19.0551 6.79254C19.0551 6.79254 19.0551 6.79254 19.0551 6.79254C19.0551 6.79254 19.0551 6.79254 19.0551 6.79254C19.0551 6.79254 19.0551 6.79254 19.0551 6.79254C19.0551 6.79254 19.0551 6.79254 19.0551 6.79254C19.0551 6.79254 19.0551 6.79254 19.0551 6.79254C19.0551 6.79254 19.0551 6.79254 19.0551 6.79254C19.0551 6.79254 19.0551 6.79254 19.0551 6.79254C19.0551 6.79254 19.0551 6.79254 19.0551 6.79254C19.0551 6.79254 19.0551 6.79254 19.0551 6.79254C19.0551 6.79254 19.0551 6.79254 19.0551 6.79255C19.0551 6.79255 19.0551 6.79255 19.0551 6.79255C19.0551 6.79255 19.0551 6.79255 19.0551 6.79255C19.0551 6.79255 19.0551 6.79255 19.0551 6.79255C19.0551 6.79255 19.0551 6.79255 19.0551 6.79255C19.0551 6.79255 19.0551 6.79255 19.0551 6.79255C19.0551 6.79255 19.0551 6.79255 19.0551 6.79255C19.0551 6.79255 19.0551 6.79255 19.0551 6.79255C19.0551 6.79255 19.0551 6.79255 19.0551 6.79255C19.0551 6.79255 19.0551 6.79255 19.0551 6.79255C19.0551 6.79255 19.0551 6.79255 19.0551 6.79255C19.0551 6.79255 19.0551 6.79255 19.0551 6.79255C19.0551 6.79255 19.0551 6.79255 19.0551 6.79255C19.0551 6.79255 19.0551 6.79255 19.0551 6.79255C19.0551 6.79255 19.0551 6.79255 19.0551 6.79255C19.0551 6.79255 19.0551 6.79255 19.0551 6.79255C19.0551 6.79255 19.0551 6.79255 19.0551 6.79255C19.0551 6.79255 19.0551 6.79255 19.0551 6.79255C19.0551 6.79255 19.0551 6.79255 19.0551 6.79255C19.0551 6.79255 19.0551 6.79255 19.0551 6.79255C19.0551 6.79255 19.0551 6.79255 19.0551 6.79255C19.0551 6.79255 19.0551 6.79255 19.0551 6.79255C19.0551 6.79255 19.0551 6.79255 19.0551 6.79255C19.0551 6.79255 19.0551 6.79255 19.0551 6.79255C19.0551 6.79255 19.0551 6.79255 19.0551 6.79255C19.0551 6.79255 19.0551 6.79255 19.0551 6.79255C19.0551 6.79255 19.0551 6.79255 19.0551 6.79255C19.0551 6.79255 19.0551 6.79255 19.0551 6.79255C19.0551 6.79255 19.0551 6.79255 19.0551 6.79255C19.0551 6.79255 19.0551 6.79255 19.0551 6.79255C19.0551 6.79255 19.0551 6.79255 19.0551 6.79255C19.0551 6.79255 19.0551 6.79255 19.0551 6.79255C19.0551 6.79255 19.0551 6.79255 19.0551 6.79255C19.0551 6.79255 19.0551 6.79255 19.0551 6.79255C19.0551 6.79255 19.0551 6.79255 19.0551 6.79255C19.0551 6.79255 19.0551 6.79255 19.0551 6.79255C19.0551 6.79255 19.0551 6.79255 19.0551 6.79255C19.0551 6.79255 19.0551 6.79255 19.0551 6.79255C19.0551 6.79255 19.0551 6.79255 19.0551 6.79255C19.0551 6.79255 19.0551 6.79255 19.0551 6.79255C19.0551 6.79255 19.0551 6.79255 19.0551 6.79255C19.0551 6.79255 19.0551 6.79255 19.0551 6.79255C19.0551 6.79255 19.0551 6.79255 19.0551 6.79256C19.0551 6.79256 19.0551 6.79256 19.0551 6.79256C19.0551 6.79256 19.0551 6.79256 19.0551 6.79256C19.0551 6.79256 19.0551 6.79256 19.0551 6.79256C19.0551 6.79256 19.0551 6.79256 19.0551 6.79256C19.0551 6.79256 19.0551 6.79256 19.0551 6.79256C19.0551 6.79256 19.0551 6.79256 19.0551 6.79256C19.0551 6.79256 19.0551 6.79256 19.0551 6.79256C19.0551 6.79256 19.0551 6.79256 19.0551 6.79256C19.0551 6.79256 19.0551 6.79256 19.0551 6.79256C19.0551 6.79256 19.0551 6.79256 19.0551 6.79256C19.0551 6.79256 19.0551 6.79256 19.0551 6.79256C19.0551 6.79256 19.0551 6.79256 19.0551 6.79256C19.0551 6.79256 19.0551 6.79256 19.0551 6.79256C19.0551 6.79256 19.0551 6.79256 19.0551 6.79256C19.0551 6.79256 19.0551 6.79256 19.0551 6.79256C19.0551 6.79256 19.0551 6.79256 19.0551 6.79256C19.0551 6.79256 19.0551 6.79256 19.0551 6.79256C19.0551 6.79256 19.0551 6.79256 19.0551 6.79256C19.0551 6.79256 19.0551 6.79256 19.0551 6.79256C19.0551 6.79256 19.0551 6.79256 19.0551 6.79256C19.0551 6.79256 19.0551 6.79256 19.0551 6.79256C19.0551 6.79256 19.0551 6.79256 19.0551 6.79256C19.0551 6.79256 19.0551 6.79256 19.0551 6.79256C19.0551 6.79256 19.0551 6.79256 19.0551 6.79256C19.0551 6.79256 19.0551 6.79256 19.0551 6.79256C19.0551 6.79256 19.0551 6.79256 19.0551 6.79256C19.0551 6.79256 19.0551 6.79256 19.0551 6.79256C19.0551 6.79256 19.0551 6.79256 19.0551 6.79256C19.0551 6.79256 19.0551 6.79256 19.0551 6.79256C19.0551 6.79256 19.0551 6.79256 19.0551 6.79256C19.0551 6.79256 19.0551 6.79256 19.0551 6.79256C19.0551 6.79256 19.0551 6.79256 19.0551 6.79256C19.0551 6.79256 19.0551 6.79256 19.0551 6.79256C19.0551 6.79256 19.0551 6.79256 19.0551 6.79256C19.0551 6.79256 19.0551 6.79256 19.0551 6.79256C19.0551 6.79256 19.0551 6.79256 19.0551 6.79256C19.0551 6.79256 19.0551 6.79256 19.0551 6.79256C19.0551 6.79256 19.0551 6.79256 19.0551 6.79256C19.0551 6.79256 19.0551 6.79256 19.0551 6.79256C19.0551 6.79256 19.0551 6.79256 19.0551 6.79256C19.0551 6.79256 19.0551 6.79256 19.0551 6.79256C19.0551 6.79256 19.0551 6.79257 19.0551 6.79257C19.0551 6.79257 19.0551 6.79257 19.0551 6.79257C19.0551 6.79257 19.0551 6.79257 19.0551 6.79257C19.0551 6.79257 19.0551 6.79257 19.0551 6.79257C19.0551 6.79257 19.0551 6.79257 19.0551 6.79257C19.0551 6.79257 19.0551 6.79257 19.0551 6.79257C19.0551 6.79257 19.0551 6.79257 19.0551 6.79257C19.0551 6.79257 19.0551 6.79257 19.0551 6.79257C19.0551 6.79257 19.0551 6.79257 19.0551 6.79257C19.0551 6.79257 19.0551 6.79257 19.0551 6.79257C19.0551 6.79257 19.0551 6.79257 19.0551 6.79257C19.0551 6.79257 19.0551 6.79257 19.0551 6.79257C19.0551 6.79257 19.0551 6.79257 19.0551 6.79257C19.0551 6.79257 19.0551 6.79257 19.0551 6.79257C19.0551 6.79257 19.0551 6.79257 19.0551 6.79257C19.0551 6.79257 19.0551 6.79257 19.0551 6.79257C19.0551 6.79257 19.0551 6.79257 19.0551 6.79257C19.0551 6.79257 19.0551 6.79257 19.0551 6.79257C19.0551 6.79257 19.0551 6.79257 19.0551 6.79257C19.0551 6.79257 19.0551 6.79257 19.0551 6.79257C19.0551 6.79257 19.0551 6.79257 19.0551 6.79257C19.0551 6.79257 19.0551 6.79257 19.0551 6.79257C19.0551 6.79257 19.0551 6.79257 19.0551 6.79257C19.0551 6.79257 19.0551 6.79257 19.0551 6.79257C19.0551 6.79257 19.0551 6.79257 19.0551 6.79257C19.0551 6.79257 19.0551 6.79257 19.0551 6.79257C19.0551 6.79257 19.0551 6.79257 19.0551 6.79257C19.0551 6.79257 19.0551 6.79257 19.0551 6.79257C19.0551 6.79257 19.0551 6.79257 19.0551 6.79257C19.0551 6.79257 19.0551 6.79257 19.0551 6.79257C19.0551 6.79257 19.0551 6.79257 19.0551 6.79257C19.0551 6.79257 19.0551 6.79257 19.0551 6.79257C19.0551 6.79257 19.0551 6.79257 19.0551 6.79257C19.0551 6.79257 19.0551 6.79257 19.0551 6.79257C19.0551 6.79257 19.0551 6.79257 19.0551 6.79257C19.0551 6.79257 19.0551 6.79257 19.0551 6.79257C19.0551 6.79257 19.0551 6.79257 19.0551 6.79257C19.0551 6.79257 19.0551 6.79257 19.0551 6.79257C19.0551 6.79257 19.0551 6.79257 19.0551 6.79257C19.0551 6.79257 19.0551 6.79257 19.0551 6.79257C19.0551 6.79257 19.0551 6.79257 19.0551 6.79257C19.0551 6.79257 19.0551 6.79257 19.0551 6.79257C19.0551 6.79258 19.0551 6.79258 19.0551 6.79258C19.0551 6.79258 19.0551 6.79258 19.0551 6.79258C19.0551 6.79258 19.0551 6.79258 19.0551 6.79258C19.0551 6.79258 19.0551 6.79258 19.0551 6.79258C19.0551 6.79258 19.0551 6.79258 19.0551 6.79258C19.0551 6.79258 19.0551 6.79258 19.0551 6.79258C19.0551 6.79258 19.0551 6.79258 19.0551 6.79258C19.0551 6.79258 19.0551 6.79258 19.0551 6.79258C19.0551 6.79258 19.0551 6.79258 19.0551 6.79258C19.0551 6.79258 19.0551 6.79258 19.0551 6.79258C19.0551 6.79258 19.0551 6.79258 19.0551 6.79258C19.0551 6.79258 19.0551 6.79258 19.0551 6.79258C19.0551 6.79258 19.0551 6.79258 19.0551 6.79258C19.0551 6.79258 19.0551 6.79258 19.0551 6.79258C19.0551 6.79258 19.0551 6.79258 19.0551 6.79258C19.0551 6.79258 19.0551 6.79258 19.0551 6.79258C19.0551 6.79258 19.0551 6.79258 19.0551 6.79258C19.0551 6.79258 19.0551 6.79258 19.0551 6.79258C19.0551 6.79258 19.0551 6.79258 19.0551 6.79258C19.0551 6.79258 19.0551 6.79258 19.0551 6.79258C19.0551 6.79258 19.0551 6.79258 19.0551 6.79258C19.0551 6.79258 19.0551 6.79258 19.0551 6.79258C19.0551 6.79258 19.0551 6.79258 19.0551 6.79258C19.0551 6.79258 19.0551 6.79258 19.0551 6.79258C19.0551 6.79258 19.0551 6.79258 19.0551 6.79258C19.0551 6.79258 19.0551 6.79258 19.0551 6.79258C19.0551 6.79258 19.0551 6.79258 19.0551 6.79258C19.0551 6.79258 19.0551 6.79258 19.0551 6.79258C19.0551 6.79258 19.0551 6.79258 19.0551 6.79258C19.0551 6.79258 19.0551 6.79258 19.0551 6.79258C19.0551 6.79258 19.0551 6.79258 19.0551 6.79258C19.0551 6.79258 19.0551 6.79258 19.0551 6.79258C19.0551 6.79258 19.0551 6.79258 19.0551 6.79258C19.0551 6.79258 19.0551 6.79258 19.0551 6.79258C19.0551 6.79258 19.0551 6.79258 19.0551 6.79258C19.0551 6.79258 19.0551 6.79258 19.0551 6.79258C19.0551 6.79258 19.0551 6.79258 19.0551 6.79258C19.0551 6.79258 19.0551 6.79258 19.0551 6.79258C19.0551 6.79258 19.0551 6.79258 19.0551 6.79258C19.0551 6.79258 19.0551 6.79258 19.0551 6.79258C19.0551 6.79258 19.0551 6.79258 19.0551 6.79258C19.0551 6.79258 19.0551 6.79258 19.0551 6.79258C19.0551 6.79259 19.0551 6.79259 19.0551 6.79259C19.0551 6.79259 19.0551 6.79259 19.0551 6.79259C19.0551 6.79259 19.0551 6.79259 19.0551 6.79259C19.0551 6.79259 19.0551 6.79259 19.0551 6.79259C19.0551 6.79259 19.0551 6.79259 19.0551 6.79259C19.0551 6.79259 19.0551 6.79259 19.0551 6.79259C19.0551 6.79259 19.0551 6.79259 19.0551 6.79259C19.0551 6.79259 19.0551 6.79259 19.0551 6.79259C19.0551 6.79259 19.0551 6.79259 19.0551 6.79259C19.0551 6.79259 19.0551 6.79259 19.0551 6.79259C19.0551 6.79259 19.0551 6.79259 19.0551 6.79259C19.0551 6.79259 19.0551 6.79259 19.0551 6.79259C19.0551 6.79259 19.0551 6.79259 19.0551 6.79259C19.0551 6.79259 19.0551 6.79259 19.0551 6.79259C19.0551 6.79259 19.0551 6.79259 19.0551 6.79259C19.0551 6.79259 19.0551 6.79259 19.0551 6.79259C19.0551 6.79259 19.0551 6.79259 19.0551 6.79259C19.0551 6.79259 19.0551 6.79259 19.0551 6.79259C19.0551 6.79259 19.0551 6.79259 19.0551 6.79259C19.0551 6.79259 19.0551 6.79259 19.0551 6.79259C19.0551 6.79259 19.0551 6.79259 19.0551 6.79259C19.0551 6.79259 19.0551 6.79259 19.0551 6.79259C19.0551 6.79259 19.0551 6.79259 19.0551 6.79259C19.0551 6.79259 19.0551 6.79259 19.0551 6.79259C19.0551 6.79259 19.0551 6.79259 19.0551 6.79259C19.0551 6.79259 19.0551 6.79259 19.0551 6.79259C19.0551 6.79259 19.0551 6.79259 19.0551 6.79259C19.0551 6.79259 19.0551 6.79259 19.0551 6.79259C19.0551 6.79259 19.0551 6.79259 19.0551 6.79259C19.0551 6.79259 19.0551 6.79259 19.0551 6.79259C19.0551 6.79259 19.0551 6.79259 19.0551 6.79259C19.0551 6.79259 19.0551 6.79259 19.0551 6.79259C19.0551 6.79259 19.0551 6.79259 19.0551 6.79259C19.0551 6.79259 19.0551 6.79259 19.0551 6.79259C19.0551 6.79259 19.0551 6.79259 19.0551 6.79259C19.0551 6.79259 19.0551 6.79259 19.0551 6.79259C19.0551 6.79259 19.0551 6.79259 19.0551 6.79259C19.0551 6.79259 19.0551 6.79259 19.0551 6.79259C19.0551 6.79259 19.0551 6.79259 19.0551 6.79259C19.0551 6.79259 19.0551 6.79259 19.0551 6.79259C19.0551 6.79259 19.0551 6.79259 19.0551 6.79259C19.0551 6.79259 19.0551 6.79259 19.0551 6.7926C19.0551 6.7926 19.0551 6.7926 19.0551 6.7926C19.0551 6.7926 19.0551 6.7926 19.0551 6.7926C19.0551 6.7926 19.0551 6.7926 19.0551 6.7926C19.0551 6.7926 19.0551 6.7926 19.0551 6.7926C19.0551 6.7926 19.0551 6.7926 19.0551 6.7926C19.0551 6.7926 19.0551 6.7926 19.0551 6.7926C19.0551 6.7926 19.0551 6.7926 19.0551 6.7926C19.0551 6.7926 19.0551 6.7926 19.0551 6.7926C19.0551 6.7926 19.0551 6.7926 19.0551 6.7926C19.0551 6.7926 19.0551 6.7926 19.0551 6.7926C19.0551 6.7926 19.0551 6.7926 19.0551 6.7926C19.0551 6.7926 19.0551 6.7926 19.0551 6.7926C19.0551 6.7926 19.0551 6.7926 19.0551 6.7926C19.0551 6.7926 19.0551 6.7926 19.0551 6.7926C19.0551 6.7926 19.0551 6.7926 19.0551 6.7926C19.0551 6.7926 19.0551 6.7926 19.0551 6.7926C19.0551 6.7926 19.0551 6.7926 19.0551 6.7926C19.0551 6.7926 19.0551 6.7926 19.0551 6.7926C19.0551 6.7926 19.0551 6.7926 19.0551 6.7926C19.0551 6.7926 19.0551 6.7926 19.0551 6.7926C19.0551 6.7926 19.0551 6.7926 19.0551 6.7926C19.0551 6.7926 19.0551 6.7926 19.0551 6.7926C19.0551 6.7926 19.0551 6.7926 19.0551 6.7926C19.0551 6.7926 19.0551 6.7926 19.0551 6.7926C19.0551 6.7926 19.0551 6.7926 19.0551 6.7926C19.0551 6.7926 19.0551 6.7926 19.0551 6.7926C19.0551 6.7926 19.0551 6.7926 19.0551 6.7926C19.0551 6.7926 19.0551 6.7926 19.0551 6.7926C19.0551 6.7926 19.0551 6.7926 19.0551 6.7926C19.0551 6.7926 19.0551 6.7926 19.0551 6.7926C19.0551 6.7926 19.0551 6.7926 19.0551 6.7926L21.0551 6.7926C21.0551 6.7926 21.0551 6.7926 21.0551 6.7926C21.0551 6.7926 21.0551 6.7926 21.0551 6.7926C21.0551 6.7926 21.0551 6.7926 21.0551 6.7926C21.0551 6.7926 21.0551 6.7926 21.0551 6.7926C21.0551 6.7926 21.0551 6.7926 21.0551 6.7926C21.0551 6.7926 21.0551 6.7926 21.0551 6.7926C21.0551 6.7926 21.0551 6.7926 21.0551 6.7926C21.0551 6.7926 21.0551 6.7926 21.0551 6.7926C21.0551 6.7926 21.0551 6.7926 21.0551 6.7926C21.0551 6.7926 21.0551 6.7926 21.0551 6.7926C21.0551 6.7926 21.0551 6.7926 21.0551 6.7926C21.0551 6.7926 21.0551 6.7926 21.0551 6.7926C21.0551 6.7926 21.0551 6.7926 21.0551 6.7926C21.0551 6.7926 21.0551 6.7926 21.0551 6.7926C21.0551 6.7926 21.0551 6.7926 21.0551 6.7926C21.0551 6.7926 21.0551 6.7926 21.0551 6.7926C21.0551 6.7926 21.0551 6.7926 21.0551 6.7926C21.0551 6.7926 21.0551 6.7926 21.0551 6.7926C21.0551 6.7926 21.0551 6.7926 21.0551 6.7926C21.0551 6.7926 21.0551 6.7926 21.0551 6.7926C21.0551 6.7926 21.0551 6.7926 21.0551 6.7926C21.0551 6.7926 21.0551 6.7926 21.0551 6.7926C21.0551 6.7926 21.0551 6.7926 21.0551 6.7926C21.0551 6.7926 21.0551 6.7926 21.0551 6.7926C21.0551 6.7926 21.0551 6.7926 21.0551 6.7926C21.0551 6.7926 21.0551 6.7926 21.0551 6.7926C21.0551 6.7926 21.0551 6.7926 21.0551 6.7926C21.0551 6.7926 21.0551 6.7926 21.0551 6.7926C21.0551 6.7926 21.0551 6.7926 21.0551 6.7926C21.0551 6.7926 21.0551 6.7926 21.0551 6.7926C21.0551 6.7926 21.0551 6.7926 21.0551 6.7926C21.0551 6.7926 21.0551 6.79259 21.0551 6.79259C21.0551 6.79259 21.0551 6.79259 21.0551 6.79259C21.0551 6.79259 21.0551 6.79259 21.0551 6.79259C21.0551 6.79259 21.0551 6.79259 21.0551 6.79259C21.0551 6.79259 21.0551 6.79259 21.0551 6.79259C21.0551 6.79259 21.0551 6.79259 21.0551 6.79259C21.0551 6.79259 21.0551 6.79259 21.0551 6.79259C21.0551 6.79259 21.0551 6.79259 21.0551 6.79259C21.0551 6.79259 21.0551 6.79259 21.0551 6.79259C21.0551 6.79259 21.0551 6.79259 21.0551 6.79259C21.0551 6.79259 21.0551 6.79259 21.0551 6.79259C21.0551 6.79259 21.0551 6.79259 21.0551 6.79259C21.0551 6.79259 21.0551 6.79259 21.0551 6.79259C21.0551 6.79259 21.0551 6.79259 21.0551 6.79259C21.0551 6.79259 21.0551 6.79259 21.0551 6.79259C21.0551 6.79259 21.0551 6.79259 21.0551 6.79259C21.0551 6.79259 21.0551 6.79259 21.0551 6.79259C21.0551 6.79259 21.0551 6.79259 21.0551 6.79259C21.0551 6.79259 21.0551 6.79259 21.0551 6.79259C21.0551 6.79259 21.0551 6.79259 21.0551 6.79259C21.0551 6.79259 21.0551 6.79259 21.0551 6.79259C21.0551 6.79259 21.0551 6.79259 21.0551 6.79259C21.0551 6.79259 21.0551 6.79259 21.0551 6.79259C21.0551 6.79259 21.0551 6.79259 21.0551 6.79259C21.0551 6.79259 21.0551 6.79259 21.0551 6.79259C21.0551 6.79259 21.0551 6.79259 21.0551 6.79259C21.0551 6.79259 21.0551 6.79259 21.0551 6.79259C21.0551 6.79259 21.0551 6.79259 21.0551 6.79259C21.0551 6.79259 21.0551 6.79259 21.0551 6.79259C21.0551 6.79259 21.0551 6.79259 21.0551 6.79259C21.0551 6.79259 21.0551 6.79259 21.0551 6.79259C21.0551 6.79259 21.0551 6.79259 21.0551 6.79259C21.0551 6.79259 21.0551 6.79259 21.0551 6.79259C21.0551 6.79259 21.0551 6.79259 21.0551 6.79259C21.0551 6.79259 21.0551 6.79259 21.0551 6.79259C21.0551 6.79259 21.0551 6.79259 21.0551 6.79259C21.0551 6.79259 21.0551 6.79259 21.0551 6.79259C21.0551 6.79259 21.0551 6.79259 21.0551 6.79259C21.0551 6.79259 21.0551 6.79259 21.0551 6.79259C21.0551 6.79259 21.0551 6.79259 21.0551 6.79259C21.0551 6.79259 21.0551 6.79259 21.0551 6.79259C21.0551 6.79259 21.0551 6.79259 21.0551 6.79259C21.0551 6.79258 21.0551 6.79258 21.0551 6.79258C21.0551 6.79258 21.0551 6.79258 21.0551 6.79258C21.0551 6.79258 21.0551 6.79258 21.0551 6.79258C21.0551 6.79258 21.0551 6.79258 21.0551 6.79258C21.0551 6.79258 21.0551 6.79258 21.0551 6.79258C21.0551 6.79258 21.0551 6.79258 21.0551 6.79258C21.0551 6.79258 21.0551 6.79258 21.0551 6.79258C21.0551 6.79258 21.0551 6.79258 21.0551 6.79258C21.0551 6.79258 21.0551 6.79258 21.0551 6.79258C21.0551 6.79258 21.0551 6.79258 21.0551 6.79258C21.0551 6.79258 21.0551 6.79258 21.0551 6.79258C21.0551 6.79258 21.0551 6.79258 21.0551 6.79258C21.0551 6.79258 21.0551 6.79258 21.0551 6.79258C21.0551 6.79258 21.0551 6.79258 21.0551 6.79258C21.0551 6.79258 21.0551 6.79258 21.0551 6.79258C21.0551 6.79258 21.0551 6.79258 21.0551 6.79258C21.0551 6.79258 21.0551 6.79258 21.0551 6.79258C21.0551 6.79258 21.0551 6.79258 21.0551 6.79258C21.0551 6.79258 21.0551 6.79258 21.0551 6.79258C21.0551 6.79258 21.0551 6.79258 21.0551 6.79258C21.0551 6.79258 21.0551 6.79258 21.0551 6.79258C21.0551 6.79258 21.0551 6.79258 21.0551 6.79258C21.0551 6.79258 21.0551 6.79258 21.0551 6.79258C21.0551 6.79258 21.0551 6.79258 21.0551 6.79258C21.0551 6.79258 21.0551 6.79258 21.0551 6.79258C21.0551 6.79258 21.0551 6.79258 21.0551 6.79258C21.0551 6.79258 21.0551 6.79258 21.0551 6.79258C21.0551 6.79258 21.0551 6.79258 21.0551 6.79258C21.0551 6.79258 21.0551 6.79258 21.0551 6.79258C21.0551 6.79258 21.0551 6.79258 21.0551 6.79258C21.0551 6.79258 21.0551 6.79258 21.0551 6.79258C21.0551 6.79258 21.0551 6.79258 21.0551 6.79258C21.0551 6.79258 21.0551 6.79258 21.0551 6.79258C21.0551 6.79258 21.0551 6.79258 21.0551 6.79258C21.0551 6.79258 21.0551 6.79258 21.0551 6.79258C21.0551 6.79258 21.0551 6.79258 21.0551 6.79258C21.0551 6.79258 21.0551 6.79258 21.0551 6.79258C21.0551 6.79258 21.0551 6.79258 21.0551 6.79258C21.0551 6.79258 21.0551 6.79258 21.0551 6.79258C21.0551 6.79258 21.0551 6.79258 21.0551 6.79258C21.0551 6.79258 21.0551 6.79258 21.0551 6.79258C21.0551 6.79258 21.0551 6.79258 21.0551 6.79258C21.0551 6.79257 21.0551 6.79257 21.0551 6.79257C21.0551 6.79257 21.0551 6.79257 21.0551 6.79257C21.0551 6.79257 21.0551 6.79257 21.0551 6.79257C21.0551 6.79257 21.0551 6.79257 21.0551 6.79257C21.0551 6.79257 21.0551 6.79257 21.0551 6.79257C21.0551 6.79257 21.0551 6.79257 21.0551 6.79257C21.0551 6.79257 21.0551 6.79257 21.0551 6.79257C21.0551 6.79257 21.0551 6.79257 21.0551 6.79257C21.0551 6.79257 21.0551 6.79257 21.0551 6.79257C21.0551 6.79257 21.0551 6.79257 21.0551 6.79257C21.0551 6.79257 21.0551 6.79257 21.0551 6.79257C21.0551 6.79257 21.0551 6.79257 21.0551 6.79257C21.0551 6.79257 21.0551 6.79257 21.0551 6.79257C21.0551 6.79257 21.0551 6.79257 21.0551 6.79257C21.0551 6.79257 21.0551 6.79257 21.0551 6.79257C21.0551 6.79257 21.0551 6.79257 21.0551 6.79257C21.0551 6.79257 21.0551 6.79257 21.0551 6.79257C21.0551 6.79257 21.0551 6.79257 21.0551 6.79257C21.0551 6.79257 21.0551 6.79257 21.0551 6.79257C21.0551 6.79257 21.0551 6.79257 21.0551 6.79257C21.0551 6.79257 21.0551 6.79257 21.0551 6.79257C21.0551 6.79257 21.0551 6.79257 21.0551 6.79257C21.0551 6.79257 21.0551 6.79257 21.0551 6.79257C21.0551 6.79257 21.0551 6.79257 21.0551 6.79257C21.0551 6.79257 21.0551 6.79257 21.0551 6.79257C21.0551 6.79257 21.0551 6.79257 21.0551 6.79257C21.0551 6.79257 21.0551 6.79257 21.0551 6.79257C21.0551 6.79257 21.0551 6.79257 21.0551 6.79257C21.0551 6.79257 21.0551 6.79257 21.0551 6.79257C21.0551 6.79257 21.0551 6.79257 21.0551 6.79257C21.0551 6.79257 21.0551 6.79257 21.0551 6.79257C21.0551 6.79257 21.0551 6.79257 21.0551 6.79257C21.0551 6.79257 21.0551 6.79257 21.0551 6.79257C21.0551 6.79257 21.0551 6.79257 21.0551 6.79257C21.0551 6.79257 21.0551 6.79257 21.0551 6.79257C21.0551 6.79257 21.0551 6.79257 21.0551 6.79257C21.0551 6.79257 21.0551 6.79257 21.0551 6.79257C21.0551 6.79257 21.0551 6.79257 21.0551 6.79257C21.0551 6.79257 21.0551 6.79257 21.0551 6.79257C21.0551 6.79257 21.0551 6.79257 21.0551 6.79257C21.0551 6.79257 21.0551 6.79257 21.0551 6.79257C21.0551 6.79257 21.0551 6.79257 21.0551 6.79256C21.0551 6.79256 21.0551 6.79256 21.0551 6.79256C21.0551 6.79256 21.0551 6.79256 21.0551 6.79256C21.0551 6.79256 21.0551 6.79256 21.0551 6.79256C21.0551 6.79256 21.0551 6.79256 21.0551 6.79256C21.0551 6.79256 21.0551 6.79256 21.0551 6.79256C21.0551 6.79256 21.0551 6.79256 21.0551 6.79256C21.0551 6.79256 21.0551 6.79256 21.0551 6.79256C21.0551 6.79256 21.0551 6.79256 21.0551 6.79256C21.0551 6.79256 21.0551 6.79256 21.0551 6.79256C21.0551 6.79256 21.0551 6.79256 21.0551 6.79256C21.0551 6.79256 21.0551 6.79256 21.0551 6.79256C21.0551 6.79256 21.0551 6.79256 21.0551 6.79256C21.0551 6.79256 21.0551 6.79256 21.0551 6.79256C21.0551 6.79256 21.0551 6.79256 21.0551 6.79256C21.0551 6.79256 21.0551 6.79256 21.0551 6.79256C21.0551 6.79256 21.0551 6.79256 21.0551 6.79256C21.0551 6.79256 21.0551 6.79256 21.0551 6.79256C21.0551 6.79256 21.0551 6.79256 21.0551 6.79256C21.0551 6.79256 21.0551 6.79256 21.0551 6.79256C21.0551 6.79256 21.0551 6.79256 21.0551 6.79256C21.0551 6.79256 21.0551 6.79256 21.0551 6.79256C21.0551 6.79256 21.0551 6.79256 21.0551 6.79256C21.0551 6.79256 21.0551 6.79256 21.0551 6.79256C21.0551 6.79256 21.0551 6.79256 21.0551 6.79256C21.0551 6.79256 21.0551 6.79256 21.0551 6.79256C21.0551 6.79256 21.0551 6.79256 21.0551 6.79256C21.0551 6.79256 21.0551 6.79256 21.0551 6.79256C21.0551 6.79256 21.0551 6.79256 21.0551 6.79256C21.0551 6.79256 21.0551 6.79256 21.0551 6.79256C21.0551 6.79256 21.0551 6.79256 21.0551 6.79256C21.0551 6.79256 21.0551 6.79256 21.0551 6.79256C21.0551 6.79256 21.0551 6.79256 21.0551 6.79256C21.0551 6.79256 21.0551 6.79256 21.0551 6.79256C21.0551 6.79256 21.0551 6.79256 21.0551 6.79256C21.0551 6.79256 21.0551 6.79256 21.0551 6.79256C21.0551 6.79256 21.0551 6.79256 21.0551 6.79256C21.0551 6.79256 21.0551 6.79256 21.0551 6.79256C21.0551 6.79256 21.0551 6.79256 21.0551 6.79256C21.0551 6.79256 21.0551 6.79256 21.0551 6.79256C21.0551 6.79256 21.0551 6.79256 21.0551 6.79256C21.0551 6.79256 21.0551 6.79256 21.0551 6.79256C21.0551 6.79256 21.0551 6.79255 21.0551 6.79255C21.0551 6.79255 21.0551 6.79255 21.0551 6.79255C21.0551 6.79255 21.0551 6.79255 21.0551 6.79255C21.0551 6.79255 21.0551 6.79255 21.0551 6.79255C21.0551 6.79255 21.0551 6.79255 21.0551 6.79255C21.0551 6.79255 21.0551 6.79255 21.0551 6.79255C21.0551 6.79255 21.0551 6.79255 21.0551 6.79255C21.0551 6.79255 21.0551 6.79255 21.0551 6.79255C21.0551 6.79255 21.0551 6.79255 21.0551 6.79255C21.0551 6.79255 21.0551 6.79255 21.0551 6.79255C21.0551 6.79255 21.0551 6.79255 21.0551 6.79255C21.0551 6.79255 21.0551 6.79255 21.0551 6.79255C21.0551 6.79255 21.0551 6.79255 21.0551 6.79255C21.0551 6.79255 21.0551 6.79255 21.0551 6.79255C21.0551 6.79255 21.0551 6.79255 21.0551 6.79255C21.0551 6.79255 21.0551 6.79255 21.0551 6.79255C21.0551 6.79255 21.0551 6.79255 21.0551 6.79255C21.0551 6.79255 21.0551 6.79255 21.0551 6.79255C21.0551 6.79255 21.0551 6.79255 21.0551 6.79255C21.0551 6.79255 21.0551 6.79255 21.0551 6.79255C21.0551 6.79255 21.0551 6.79255 21.0551 6.79255C21.0551 6.79255 21.0551 6.79255 21.0551 6.79255C21.0551 6.79255 21.0551 6.79255 21.0551 6.79255C21.0551 6.79255 21.0551 6.79255 21.0551 6.79255C21.0551 6.79255 21.0551 6.79255 21.0551 6.79255C21.0551 6.79255 21.0551 6.79255 21.0551 6.79255C21.0551 6.79255 21.0551 6.79255 21.0551 6.79255C21.0551 6.79255 21.0551 6.79255 21.0551 6.79255C21.0551 6.79255 21.0551 6.79255 21.0551 6.79255C21.0551 6.79255 21.0551 6.79255 21.0551 6.79255C21.0551 6.79255 21.0551 6.79255 21.0551 6.79255C21.0551 6.79255 21.0551 6.79255 21.0551 6.79255C21.0551 6.79255 21.0551 6.79255 21.0551 6.79255C21.0551 6.79255 21.0551 6.79255 21.0551 6.79255C21.0551 6.79255 21.0551 6.79255 21.0551 6.79255C21.0551 6.79255 21.0551 6.79255 21.0551 6.79255C21.0551 6.79255 21.0551 6.79255 21.0551 6.79255C21.0551 6.79255 21.0551 6.79255 21.0551 6.79255C21.0551 6.79255 21.0551 6.79255 21.0551 6.79255C21.0551 6.79255 21.0551 6.79255 21.0551 6.79255C21.0551 6.79255 21.0551 6.79255 21.0551 6.79255C21.0551 6.79255 21.0551 6.79255 21.0551 6.79255C21.0551 6.79255 21.0551 6.79254 21.0551 6.79254C21.0551 6.79254 21.0551 6.79254 21.0551 6.79254C21.0551 6.79254 21.0551 6.79254 21.0551 6.79254C21.0551 6.79254 21.0551 6.79254 21.0551 6.79254C21.0551 6.79254 21.0551 6.79254 21.0551 6.79254C21.0551 6.79254 21.0551 6.79254 21.0551 6.79254C21.0551 6.79254 21.0551 6.79254 21.0551 6.79254C21.0551 6.79254 21.0551 6.79254 21.0551 6.79254C21.0551 6.79254 21.0551 6.79254 21.0551 6.79254C21.0551 6.79254 21.0551 6.79254 21.0551 6.79254C21.0551 6.79254 21.0551 6.79254 21.0551 6.79254C21.0551 6.79254 21.0551 6.79254 21.0551 6.79254C21.0551 6.79254 21.0551 6.79254 21.0551 6.79254C21.0551 6.79254 21.0551 6.79254 21.0551 6.79254C21.0551 6.79254 21.0551 6.79254 21.0551 6.79254C21.0551 6.79254 21.0551 6.79254 21.0551 6.79254C21.0551 6.79254 21.0551 6.79254 21.0551 6.79254C21.0551 6.79254 21.0551 6.79254 21.0551 6.79254C21.0551 6.79254 21.0551 6.79254 21.0551 6.79254C21.0551 6.79254 21.0551 6.79254 21.0551 6.79254C21.0551 6.79254 21.0551 6.79254 21.0551 6.79254C21.0551 6.79254 21.0551 6.79254 21.0551 6.79254C21.0551 6.79254 21.0551 6.79254 21.0551 6.79254C21.0551 6.79254 21.0551 6.79254 21.0551 6.79254C21.0551 6.79254 21.0551 6.79254 21.0551 6.79254C21.0551 6.79254 21.0551 6.79254 21.0551 6.79254C21.0551 6.79254 21.0551 6.79254 21.0551 6.79254C21.0551 6.79254 21.0551 6.79254 21.0551 6.79254C21.0551 6.79254 21.0551 6.79254 21.0551 6.79254C21.0551 6.79254 21.0551 6.79254 21.0551 6.79254C21.0551 6.79254 21.0551 6.79254 21.0551 6.79254C21.0551 6.79254 21.0551 6.79254 21.0551 6.79254C21.0551 6.79254 21.0551 6.79254 21.0551 6.79254C21.0551 6.79254 21.0551 6.79254 21.0551 6.79254C21.0551 6.79254 21.0551 6.79254 21.0551 6.79254C21.0551 6.79254 21.0551 6.79254 21.0551 6.79254C21.0551 6.79254 21.0551 6.79254 21.0551 6.79254C21.0551 6.79254 21.0551 6.79254 21.0551 6.79254C21.0551 6.79254 21.0551 6.79254 21.0551 6.79254C21.0551 6.79254 21.0551 6.79254 21.0551 6.79254C21.0551 6.79254 21.0551 6.79254 21.0551 6.79254C21.0551 6.79254 21.0551 6.79254 21.0551 6.79254C21.0551 6.79253 21.0551 6.79253 21.0551 6.79253C21.0551 6.79253 21.0551 6.79253 21.0551 6.79253C21.0551 6.79253 21.0551 6.79253 21.0551 6.79253C21.0551 6.79253 21.0551 6.79253 21.0551 6.79253C21.0551 6.79253 21.0551 6.79253 21.0551 6.79253C21.0551 6.79253 21.0551 6.79253 21.0551 6.79253C21.0551 6.79253 21.0551 6.79253 21.0551 6.79253C21.0551 6.79253 21.0551 6.79253 21.0551 6.79253C21.0551 6.79253 21.0551 6.79253 21.0551 6.79253C21.0551 6.79253 21.0551 6.79253 21.0551 6.79253C21.0551 6.79253 21.0551 6.79253 21.0551 6.79253C21.0551 6.79253 21.0551 6.79253 21.0551 6.79253C21.0551 6.79253 21.0551 6.79253 21.0551 6.79253C21.0551 6.79253 21.0551 6.79253 21.0551 6.79253C21.0551 6.79253 21.0551 6.79253 21.0551 6.79253C21.0551 6.79253 21.0551 6.79253 21.0551 6.79253C21.0551 6.79253 21.0551 6.79253 21.0551 6.79253C21.0551 6.79253 21.0551 6.79253 21.0551 6.79253C21.0551 6.79253 21.0551 6.79253 21.0551 6.79253C21.0551 6.79253 21.0551 6.79253 21.0551 6.79253C21.0551 6.79253 21.0551 6.79253 21.0551 6.79253C21.0551 6.79253 21.0551 6.79253 21.0551 6.79253C21.0551 6.79253 21.0551 6.79253 21.0551 6.79253C21.0551 6.79253 21.0551 6.79253 21.0551 6.79253C21.0551 6.79253 21.0551 6.79253 21.0551 6.79253C21.0551 6.79253 21.0551 6.79253 21.0551 6.79253C21.0551 6.79253 21.0551 6.79253 21.0551 6.79253C21.0551 6.79253 21.0551 6.79253 21.0551 6.79253C21.0551 6.79253 21.0551 6.79253 21.0551 6.79253C21.0551 6.79253 21.0551 6.79253 21.0551 6.79253C21.0551 6.79253 21.0551 6.79253 21.0551 6.79253C21.0551 6.79253 21.0551 6.79253 21.0551 6.79253C21.0551 6.79253 21.0551 6.79253 21.0551 6.79253C21.0551 6.79253 21.0551 6.79253 21.0551 6.79253C21.0551 6.79253 21.0551 6.79253 21.0551 6.79253C21.0551 6.79253 21.0551 6.79253 21.0551 6.79253C21.0551 6.79253 21.0551 6.79253 21.0551 6.79253C21.0551 6.79253 21.0551 6.79253 21.0551 6.79253C21.0551 6.79253 21.0551 6.79253 21.0551 6.79253C21.0551 6.79253 21.0551 6.79253 21.0551 6.79253C21.0551 6.79253 21.0551 6.79253 21.0551 6.79253C21.0551 6.79253 21.0551 6.79253 21.0551 6.79252C21.0551 6.79252 21.0551 6.79252 21.0551 6.79252C21.0551 6.79252 21.0551 6.79252 21.0551 6.79252C21.0551 6.79252 21.0551 6.79252 21.0551 6.79252C21.0551 6.79252 21.0551 6.79252 21.0551 6.79252C21.0551 6.79252 21.0551 6.79252 21.0551 6.79252C21.0551 6.79252 21.0551 6.79252 21.0551 6.79252C21.0551 6.79252 21.0551 6.79252 21.0551 6.79252C21.0551 6.79252 21.0551 6.79252 21.0551 6.79252C21.0551 6.79252 21.0551 6.79252 21.0551 6.79252C21.0551 6.79252 21.0551 6.79252 21.0551 6.79252C21.0551 6.79252 21.0551 6.79252 21.0551 6.79252C21.0551 6.79252 21.0551 6.79252 21.0551 6.79252C21.0551 6.79252 21.0551 6.79252 21.0551 6.79252C21.0551 6.79252 21.0551 6.79252 21.0551 6.79252C21.0551 6.79252 21.0551 6.79252 21.0551 6.79252C21.0551 6.79252 21.0551 6.79252 21.0551 6.79252C21.0551 6.79252 21.0551 6.79252 21.0551 6.79252C21.0551 6.79252 21.0551 6.79252 21.0551 6.79252C21.0551 6.79252 21.0551 6.79252 21.0551 6.79252C21.0551 6.79252 21.0551 6.79252 21.0551 6.79252C21.0551 6.79252 21.0551 6.79252 21.0551 6.79252C21.0551 6.79252 21.0551 6.79252 21.0551 6.79252C21.0551 6.79252 21.0551 6.79252 21.0551 6.79252C21.0551 6.79252 21.0551 6.79252 21.0551 6.79252C21.0551 6.79252 21.0551 6.79252 21.0551 6.79252C21.0551 6.79252 21.0551 6.79252 21.0551 6.79252C21.0551 6.79252 21.0551 6.79252 21.0551 6.79252C21.0551 6.79252 21.0551 6.79252 21.0551 6.79252C21.0551 6.79252 21.0551 6.79252 21.0551 6.79252C21.0551 6.79252 21.0551 6.79252 21.0551 6.79252C21.0551 6.79252 21.0551 6.79252 21.0551 6.79252C21.0551 6.79252 21.0551 6.79252 21.0551 6.79252C21.0551 6.79252 21.0551 6.79252 21.0551 6.79252C21.0551 6.79252 21.0551 6.79252 21.0551 6.79252C21.0551 6.79252 21.0551 6.79252 21.0551 6.79252C21.0551 6.79252 21.0551 6.79252 21.0551 6.79252C21.0551 6.79252 21.0551 6.79252 21.0551 6.79252C21.0551 6.79252 21.0551 6.79252 21.0551 6.79252C21.0551 6.79252 21.0551 6.79252 21.0551 6.79252C21.0551 6.79252 21.0551 6.79252 21.0551 6.79252C21.0551 6.79252 21.0551 6.79252 21.0551 6.79252C21.0551 6.79252 21.0551 6.79252 21.0551 6.79251C21.0551 6.79251 21.0551 6.79251 21.0551 6.79251C21.0551 6.79251 21.0551 6.79251 21.0551 6.79251C21.0551 6.79251 21.0551 6.79251 21.0551 6.79251C21.0551 6.79251 21.0551 6.79251 21.0551 6.79251C21.0551 6.79251 21.0551 6.79251 21.0551 6.79251C21.0551 6.79251 21.0551 6.79251 21.0551 6.79251C21.0551 6.79251 21.0551 6.79251 21.0551 6.79251C21.0551 6.79251 21.0551 6.79251 21.0551 6.79251C21.0551 6.79251 21.0551 6.79251 21.0551 6.79251C21.0551 6.79251 21.0551 6.79251 21.0551 6.79251C21.0551 6.79251 21.0551 6.79251 21.0551 6.79251C21.0551 6.79251 21.0551 6.79251 21.0551 6.79251C21.0551 6.79251 21.0551 6.79251 21.0551 6.79251C21.0551 6.79251 21.0551 6.79251 21.0551 6.79251C21.0551 6.79251 21.0551 6.79251 21.0551 6.79251C21.0551 6.79251 21.0551 6.79251 21.0551 6.79251C21.0551 6.79251 21.0551 6.79251 21.0551 6.79251C21.0551 6.79251 21.0551 6.79251 21.0551 6.79251C21.0551 6.79251 21.0551 6.79251 21.0551 6.79251C21.0551 6.79251 21.0551 6.79251 21.0551 6.79251C21.0551 6.79251 21.0551 6.79251 21.0551 6.79251C21.0551 6.79251 21.0551 6.79251 21.0551 6.79251C21.0551 6.79251 21.0551 6.79251 21.0551 6.79251C21.0551 6.79251 21.0551 6.79251 21.0551 6.79251C21.0551 6.79251 21.0551 6.79251 21.0551 6.79251C21.0551 6.79251 21.0551 6.79251 21.0551 6.79251C21.0551 6.79251 21.0551 6.79251 21.0551 6.79251C21.0551 6.79251 21.0551 6.79251 21.0551 6.79251C21.0551 6.79251 21.0551 6.79251 21.0551 6.79251C21.0551 6.79251 21.0551 6.79251 21.0551 6.79251C21.0551 6.79251 21.0551 6.79251 21.0551 6.79251C21.0551 6.79251 21.0551 6.79251 21.0551 6.79251C21.0551 6.79251 21.0551 6.79251 21.0551 6.79251C21.0551 6.79251 21.0551 6.79251 21.0551 6.79251C21.0551 6.79251 21.0551 6.79251 21.0551 6.79251C21.0551 6.79251 21.0551 6.79251 21.0551 6.79251C21.0551 6.79251 21.0551 6.79251 21.0551 6.79251C21.0551 6.79251 21.0551 6.79251 21.0551 6.79251C21.0551 6.79251 21.0551 6.79251 21.0551 6.79251C21.0551 6.79251 21.0551 6.79251 21.0551 6.79251C21.0551 6.79251 21.0551 6.79251 21.0551 6.79251C21.0551 6.79251 21.0551 6.7925 21.0551 6.7925C21.0551 6.7925 21.0551 6.7925 21.0551 6.7925C21.0551 6.7925 21.0551 6.7925 21.0551 6.7925C21.0551 6.7925 21.0551 6.7925 21.0551 6.7925C21.0551 6.7925 21.0551 6.7925 21.0551 6.7925C21.0551 6.7925 21.0551 6.7925 21.0551 6.7925C21.0551 6.7925 21.0551 6.7925 21.0551 6.7925C21.0551 6.7925 21.0551 6.7925 21.0551 6.7925C21.0551 6.7925 21.0551 6.7925 21.0551 6.7925C21.0551 6.7925 21.0551 6.7925 21.0551 6.7925C21.0551 6.7925 21.0551 6.7925 21.0551 6.7925C21.0551 6.7925 21.0551 6.7925 21.0551 6.7925C21.0551 6.7925 21.0551 6.7925 21.0551 6.7925C21.0551 6.7925 21.0551 6.7925 21.0551 6.7925C21.0551 6.7925 21.0551 6.7925 21.0551 6.7925C21.0551 6.7925 21.0551 6.7925 21.0551 6.7925C21.0551 6.7925 21.0551 6.7925 21.0551 6.7925C21.0551 6.7925 21.0551 6.7925 21.0551 6.7925C21.0551 6.7925 21.0551 6.7925 21.0551 6.7925C21.0551 6.7925 21.0551 6.7925 21.0551 6.7925C21.0551 6.7925 21.0551 6.7925 21.0551 6.7925C21.0551 6.7925 21.0551 6.7925 21.0551 6.7925C21.0551 6.7925 21.0551 6.7925 21.0551 6.7925C21.0551 6.7925 21.0551 6.7925 21.0551 6.7925C21.0551 6.7925 21.0551 6.7925 21.0551 6.7925C21.0551 6.7925 21.0551 6.7925 21.0551 6.7925C21.0551 6.7925 21.0551 6.7925 21.0551 6.7925C21.0551 6.7925 21.0551 6.7925 21.0551 6.7925C21.0551 6.7925 21.0551 6.7925 21.0551 6.7925C21.0551 6.7925 21.0551 6.7925 21.0551 6.7925C21.0551 6.7925 21.0551 6.7925 21.0551 6.7925C21.0551 6.7925 21.0551 6.7925 21.0551 6.7925C21.0551 6.7925 21.0551 6.7925 21.0551 6.7925C21.0551 6.7925 21.0551 6.7925 21.0551 6.7925C21.0551 6.7925 21.0551 6.7925 21.0551 6.7925C21.0551 6.7925 21.0551 6.7925 21.0551 6.7925C21.0551 6.7925 21.0551 6.7925 21.0551 6.7925C21.0551 6.7925 21.0551 6.7925 21.0551 6.7925C21.0551 6.7925 21.0551 6.7925 21.0551 6.7925C21.0551 6.7925 21.0551 6.7925 21.0551 6.7925C21.0551 6.7925 21.0551 6.7925 21.0551 6.7925C21.0551 6.7925 21.0551 6.7925 21.0551 6.7925C21.0551 6.79249 21.0551 6.79249 21.0551 6.79249C21.0551 6.79249 21.0551 6.79249 21.0551 6.79249C21.0551 6.79249 21.0551 6.79249 21.0551 6.79249C21.0551 6.79249 21.0551 6.79249 21.0551 6.79249C21.0551 6.79249 21.0551 6.79249 21.0551 6.79249C21.0551 6.79249 21.0551 6.79249 21.0551 6.79249C21.0551 6.79249 21.0551 6.79249 21.0551 6.79249C21.0551 6.79249 21.0551 6.79249 21.0551 6.79249C21.0551 6.79249 21.0551 6.79249 21.0551 6.79249C21.0551 6.79249 21.0551 6.79249 21.0551 6.79249C21.0551 6.79249 21.0551 6.79249 21.0551 6.79249C21.0551 6.79249 21.0551 6.79249 21.0551 6.79249C21.0551 6.79249 21.0551 6.79249 21.0551 6.79249C21.0551 6.79249 21.0551 6.79249 21.0551 6.79249C21.0551 6.79249 21.0551 6.79249 21.0551 6.79249C21.0551 6.79249 21.0551 6.79249 21.0551 6.79249C21.0551 6.79249 21.0551 6.79249 21.0551 6.79249C21.0551 6.79249 21.0551 6.79249 21.0551 6.79249C21.0551 6.79249 21.0551 6.79249 21.0551 6.79249C21.0551 6.79249 21.0551 6.79249 21.0551 6.79249C21.0551 6.79249 21.0551 6.79249 21.0551 6.79249C21.0551 6.79249 21.0551 6.79249 21.0551 6.79249C21.0551 6.79249 21.0551 6.79249 21.0551 6.79249C21.0551 6.79249 21.0551 6.79249 21.0551 6.79249C21.0551 6.79249 21.0551 6.79249 21.0551 6.79249C21.0551 6.79249 21.0551 6.79249 21.0551 6.79249C21.0551 6.79249 21.0551 6.79249 21.0551 6.79249C21.0551 6.79249 21.0551 6.79249 21.0551 6.79249C21.0551 6.79249 21.0551 6.79249 21.0551 6.79249C21.0551 6.79249 21.0551 6.79249 21.0551 6.79249C21.0551 6.79249 21.0551 6.79249 21.0551 6.79249C21.0551 6.79249 21.0551 6.79249 21.0551 6.79249C21.0551 6.79249 21.0551 6.79249 21.0551 6.79249C21.0551 6.79249 21.0551 6.79249 21.0551 6.79249C21.0551 6.79249 21.0551 6.79249 21.0551 6.79249C21.0551 6.79249 21.0551 6.79249 21.0551 6.79249C21.0551 6.79249 21.0551 6.79249 21.0551 6.79249C21.0551 6.79249 21.0551 6.79249 21.0551 6.79249C21.0551 6.79249 21.0551 6.79249 21.0551 6.79249C21.0551 6.79249 21.0551 6.79249 21.0551 6.79249C21.0551 6.79249 21.0551 6.79249 21.0551 6.79249C21.0551 6.79249 21.0551 6.79249 21.0551 6.79249C21.0551 6.79248 21.0551 6.79248 21.0551 6.79248C21.0551 6.79248 21.0551 6.79248 21.0551 6.79248C21.0551 6.79248 21.0551 6.79248 21.0551 6.79248C21.0551 6.79248 21.0551 6.79248 21.0551 6.79248C21.0551 6.79248 21.0551 6.79248 21.0551 6.79248C21.0551 6.79248 21.0551 6.79248 21.0551 6.79248C21.0551 6.79248 21.0551 6.79248 21.0551 6.79248C21.0551 6.79248 21.0551 6.79248 21.0551 6.79248C21.0551 6.79248 21.0551 6.79248 21.0551 6.79248C21.0551 6.79248 21.0551 6.79248 21.0551 6.79248C21.0551 6.79248 21.0551 6.79248 21.0551 6.79248C21.0551 6.79248 21.0551 6.79248 21.0551 6.79248C21.0551 6.79248 21.0551 6.79248 21.0551 6.79248C21.0551 6.79248 21.0551 6.79248 21.0551 6.79248C21.0551 6.79248 21.0551 6.79248 21.0551 6.79248C21.0551 6.79248 21.0551 6.79248 21.0551 6.79248C21.0551 6.79248 21.0551 6.79248 21.0551 6.79248C21.0551 6.79248 21.0551 6.79248 21.0551 6.79248C21.0551 6.79248 21.0551 6.79248 21.0551 6.79248C21.0551 6.79248 21.0551 6.79248 21.0551 6.79248C21.0551 6.79248 21.0551 6.79248 21.0551 6.79248L19.0551 6.79248ZM19.0551 6.7926C19.0551 14.2938 13.0744 20.3474 5.73013 20.3474L5.73013 22.3474C14.2088 22.3474 21.0551 15.3682 21.0551 6.7926L19.0551 6.7926ZM6.73005 75.6853L6.73013 21.3474L4.73013 21.3474L4.73005 75.6853L6.73005 75.6853ZM21.0551 90.2401C21.0551 81.6645 14.2088 74.6853 5.73005 74.6853L5.73005 76.6853C13.0743 76.6853 19.0551 82.739 19.0551 90.2401L21.0551 90.2401ZM169.99 89.2401L20.0551 89.2401L20.0551 91.2401L169.99 91.2401L169.99 89.2401ZM184.315 74.6853C175.836 74.6854 168.99 81.6645 168.99 90.2401L170.99 90.2401C170.99 82.739 176.971 76.6854 184.315 76.6853L184.315 74.6853Z" fill="black" mask="url(#path-2-inside-1_2037_538)"/>
<path d="M12 115.062C16.1314 115.062 18.201 109 22.4916 109C26.7823 109 28.6926 115.062 32.9832 115.062C37.2739 115.062 39.1842 109 43.4748 109C47.7655 109 49.6758 115.062 53.9664 115.062C58.2571 115.062 60.3608 109 64.458 109C68.5553 109 70.659 115.062 74.9496 115.062C79.2403 115.062 81.1506 109 85.4412 109C89.7319 109 92.2363 115.062 95.9328 115.062" stroke="white" stroke-width="2" stroke-linecap="round"/>
<path d="M95.9329 115.062C100.064 115.062 102.134 109 106.424 109C110.715 109 112.625 115.062 116.916 115.062C121.207 115.062 123.117 109 127.408 109C131.698 109 133.609 115.062 137.899 115.062C142.19 115.062 144.294 109 148.391 109C152.488 109 154.592 115.062 158.882 115.062C163.173 115.062 165.083 109 169.374 109C173.665 109 176.169 115.062 179.866 115.062" stroke="white" stroke-width="2" stroke-linecap="round"/>
</svg>
