<svg width="116" height="226" viewBox="0 0 116 226" fill="none" xmlns="http://www.w3.org/2000/svg">
<path d="M22.1299 87.8859C20.9542 85.0221 22.5294 81.7117 25.5196 80.9098L70.0811 68.9596C73.0714 68.1577 76.0894 70.2362 76.5018 73.3047C77.7793 82.8074 80.9986 102.464 87.7373 122.053C92.4588 135.778 101.304 159.907 106.025 173.632C109.293 183.131 111.826 196.937 113.055 204.39C113.548 207.383 111.669 210.223 108.739 211.008L63.0061 223.273C60.0761 224.059 57.0294 222.54 55.9615 219.701C53.3026 212.631 48.5989 199.407 46.6833 189.546C43.9154 175.297 39.5213 149.975 36.7533 135.726C32.8028 115.389 25.7709 96.7546 22.1299 87.8859Z" fill="#E04025" stroke="black"/>
<path d="M84.1369 132.881C91.2488 159.445 94.0889 181.764 76.1191 186.583C59.4031 191.066 49.4587 170.652 42.3468 144.088C35.2348 117.523 34.4843 94.6438 50.3646 90.3851C68.3343 85.5661 77.025 106.316 84.1369 132.881Z" fill="white" fill-opacity="0.9"/>
<path d="M50.338 108.63L59.9994 106.049L60.8787 109.334C61.0856 110.107 61.1481 110.841 61.0662 111.538C60.9862 112.242 60.7857 112.882 60.4646 113.458C60.1525 114.04 59.7366 114.534 59.2168 114.941C58.697 115.349 58.1044 115.641 57.4388 115.819C56.7732 115.996 56.1135 116.038 55.4596 115.945C54.8057 115.851 54.1947 115.631 53.6264 115.284C53.0673 114.943 52.5772 114.487 52.1562 113.917C51.7372 113.355 51.4242 112.687 51.2173 111.914L50.338 108.63ZM52.5771 110.033L52.9104 111.278C53.056 111.822 53.2631 112.28 53.5316 112.653C53.8073 113.024 54.1221 113.312 54.4759 113.516C54.8388 113.726 55.2255 113.853 55.6359 113.897C56.0483 113.947 56.4692 113.916 56.8986 113.801C57.328 113.686 57.7086 113.504 58.0405 113.254C58.3815 113.01 58.6533 112.707 58.8557 112.347C59.0673 111.991 59.1962 111.585 59.2426 111.128C59.2889 110.671 59.2393 110.17 59.0937 109.626L58.7604 108.381L52.5771 110.033ZM52.9697 118.459L64.1154 120.049L64.1212 120.07L55.257 127.003L54.7369 125.06L56.262 123.883L55.3827 120.598L53.4726 120.338L52.9697 118.459ZM57.1009 120.829L57.6354 122.826L58.5109 122.143C58.7451 121.958 58.9704 121.783 59.1869 121.618C59.4125 121.458 59.6784 121.291 59.9846 121.117C59.6415 121.125 59.3322 121.115 59.0568 121.089C58.7815 121.063 58.496 121.028 58.2006 120.984L57.1009 120.829ZM56.3888 132.133C56.2068 131.453 56.1845 130.811 56.3218 130.207C56.4592 129.603 56.7443 129.078 57.1772 128.633C57.6192 128.193 58.2016 127.876 58.9244 127.683L65.3331 125.972L65.8676 127.968L59.5555 129.654C59.033 129.793 58.6563 130.047 58.4252 130.416C58.196 130.791 58.1427 131.208 58.2653 131.666C58.386 132.117 58.6323 132.45 59.0043 132.665C59.3834 132.878 59.8234 132.917 60.3244 132.784L66.7009 131.081L67.2181 133.013L60.8416 134.716C60.1116 134.911 59.4416 134.928 58.8316 134.769C58.2287 134.608 57.7168 134.3 57.2959 133.845C56.877 133.398 56.5746 132.827 56.3888 132.133ZM58.2986 138.364L67.96 135.784L68.7703 138.81C68.9427 139.454 68.9544 139.999 68.8055 140.445C68.6656 140.897 68.4424 141.252 68.1357 141.51C67.8363 141.766 67.5291 141.936 67.2142 142.02C66.9351 142.095 66.6559 142.112 66.3767 142.072C66.1047 142.029 65.8497 141.936 65.612 141.793C65.4516 142.311 65.1753 142.768 64.7829 143.164C64.3977 143.559 63.9224 143.831 63.357 143.982C62.8059 144.129 62.2399 144.135 61.659 143.999C61.0781 143.862 60.5548 143.569 60.0891 143.118C59.6233 142.668 59.2851 142.049 59.0744 141.262L58.2986 138.364ZM60.5376 139.767L60.7617 140.604C60.8767 141.033 61.0509 141.355 61.2845 141.568C61.5271 141.787 61.789 141.921 62.0701 141.968C62.3603 142.021 62.6307 142.014 62.8812 141.947C63.1245 141.882 63.3561 141.759 63.5759 141.578C63.8029 141.394 63.9668 141.147 64.0677 140.837C64.1705 140.533 64.1635 140.163 64.0466 139.727L63.8225 138.89L60.5376 139.767ZM65.1751 138.528L65.3992 139.366C65.4892 139.702 65.6408 139.953 65.8538 140.118C66.0668 140.284 66.3235 140.326 66.6241 140.246C66.939 140.162 67.1474 139.995 67.2493 139.745C67.3531 139.503 67.3629 139.224 67.2786 138.91L67.0429 138.03L65.1751 138.528ZM60.711 147.374L70.3724 144.794L71.7516 149.946L70.077 150.393L69.1977 147.109L67.7163 147.505L68.3944 150.038L66.7842 150.468L66.1061 147.935L62.95 148.778L63.8293 152.062L62.0902 152.526L60.711 147.374ZM62.7885 155.135L72.4499 152.554L73.2401 155.506C73.4279 156.207 73.4483 156.842 73.3013 157.41C73.1563 157.986 72.8867 158.468 72.4924 158.857C72.1052 159.244 71.6361 159.511 71.0851 159.658C70.5841 159.792 70.1 159.802 69.6327 159.69C69.1673 159.584 68.7485 159.366 68.3765 159.036L64.8201 162.723L64.254 160.608L67.3506 157.481L66.9598 156.022L63.2885 157.002L62.7885 155.135ZM68.5701 155.592L68.8488 156.633C68.9427 156.983 69.0837 157.252 69.2719 157.44C69.4673 157.625 69.6795 157.745 69.9086 157.799C70.1449 157.851 70.3704 157.848 70.5851 157.791C70.9644 157.689 71.2383 157.467 71.407 157.123C71.5827 156.777 71.6103 156.378 71.4896 155.927L71.2108 154.886L68.5701 155.592ZM65.7868 167.193C65.6298 166.606 65.5877 166.02 65.6606 165.433C65.7426 164.851 65.8954 164.362 66.1188 163.965L68.4066 163.917C68.0371 164.284 67.7669 164.736 67.5961 165.272C67.4324 165.807 67.4148 166.314 67.5431 166.793C67.6485 167.187 67.8382 167.466 68.1123 167.63C68.3883 167.802 68.6802 167.847 68.9879 167.764C69.2384 167.697 69.4296 167.581 69.5617 167.416C69.6956 167.257 69.7942 167.081 69.8575 166.888C69.9227 166.702 69.9677 166.54 69.9924 166.404L70.2567 165.114C70.3332 164.741 70.4421 164.374 70.5835 164.015C70.7321 163.653 70.9487 163.331 71.2333 163.048C71.5199 162.772 71.9101 162.568 72.4039 162.436C72.9478 162.291 73.4562 162.285 73.9293 162.42C74.4043 162.561 74.8166 162.827 75.1663 163.216C75.516 163.606 75.7723 164.105 75.9351 164.713C76.0884 165.285 76.1313 165.818 76.064 166.312C76.0058 166.81 75.9103 167.227 75.7775 167.561L73.552 167.627C73.8475 167.241 74.0525 166.818 74.1671 166.358C74.2908 165.903 74.2999 165.479 74.1945 165.086C74.1007 164.735 73.9384 164.487 73.7078 164.342C73.4791 164.204 73.2323 164.17 72.9675 164.24C72.8029 164.284 72.6658 164.359 72.5561 164.465C72.4484 164.578 72.3636 164.72 72.3017 164.89C72.2398 165.06 72.1846 165.255 72.1362 165.475L71.8747 166.775C71.8334 166.993 71.7682 167.237 71.6792 167.506C71.5974 167.773 71.4743 168.043 71.3099 168.317C71.1455 168.591 70.9241 168.838 70.6456 169.058C70.3742 169.276 70.0239 169.443 69.5945 169.557C69.0363 169.707 68.4973 169.712 67.9774 169.575C67.4647 169.436 67.0128 169.166 66.6216 168.764C66.2394 168.368 65.9612 167.844 65.7868 167.193Z" fill="black"/>
<path d="M63.6302 28.1027C67.5786 42.851 58.8337 58.0097 44.0987 61.9612C29.3637 65.9128 14.2173 57.1611 10.2688 42.4129C6.32039 27.6646 15.0654 12.5059 29.8004 8.55437C44.5353 4.60282 59.6817 13.3545 63.6302 28.1027Z" fill="url(#paint0_radial_22_391)" stroke="black"/>
<ellipse cx="7.35535" cy="7.36071" rx="7.35535" ry="7.36071" transform="matrix(0.965871 -0.259022 0.258616 0.96598 33.6121 17.7732)" fill="#D9D9D9" fill-opacity="0.83"/>
<ellipse cx="2.16334" cy="2.16491" rx="2.16334" ry="2.16491" transform="matrix(0.965871 -0.259022 0.258616 0.96598 42.0302 19.1021)" fill="white"/>
<path fill-rule="evenodd" clip-rule="evenodd" d="M24.762 74.5383C24.2286 74.6814 23.912 75.2298 24.0548 75.7633L25.1799 79.9657C25.3227 80.4992 25.8709 80.8157 26.4044 80.6727L68.7702 69.3113C69.3036 69.1682 69.6203 68.6198 69.4774 68.0863L68.3524 63.8838C68.2095 63.3503 67.6613 63.0338 67.1279 63.1769C66.5221 63.3393 65.9763 62.535 66.2327 61.9625C66.8609 60.5601 67.0289 58.9409 66.6006 57.3411C65.6112 53.6452 61.8132 51.4525 58.1177 52.4435L27.2027 60.7341C23.5073 61.7251 21.3136 65.5247 22.3031 69.2206C22.7314 70.8204 23.6859 72.1386 24.9306 73.0388C25.4387 73.4063 25.3678 74.3759 24.762 74.5383Z" fill="white"/>
<path d="M24.0548 75.7633L24.5377 75.6338L24.0548 75.7633ZM25.1799 79.9657L24.6969 80.0952L25.1799 79.9657ZM26.4044 80.6727L26.5337 81.1557L26.4044 80.6727ZM68.7702 69.3113L68.6409 68.8283L68.6409 68.8283L68.7702 69.3113ZM69.4774 68.0863L68.9945 68.2158L69.4774 68.0863ZM68.3524 63.8838L67.8694 64.0134L68.3524 63.8838ZM66.6006 57.3411L66.1177 57.4706L66.6006 57.3411ZM58.1177 52.4435L57.9884 51.9605L58.1177 52.4435ZM27.2027 60.7341L27.3321 61.2171L27.2027 60.7341ZM66.2327 61.9625L65.7765 61.7582L66.2327 61.9625ZM24.5377 75.6338C24.4663 75.3671 24.6246 75.0928 24.8914 75.0213L24.6327 74.0553C23.8326 74.2699 23.3576 75.0926 23.5719 75.8928L24.5377 75.6338ZM25.6628 79.8362L24.5377 75.6338L23.5719 75.8928L24.6969 80.0952L25.6628 79.8362ZM26.2751 80.1897C26.0083 80.2612 25.7342 80.103 25.6628 79.8362L24.6969 80.0952C24.9112 80.8955 25.7335 81.3703 26.5337 81.1557L26.2751 80.1897ZM68.6409 68.8283L26.2751 80.1897L26.5337 81.1557L68.8995 69.7942L68.6409 68.8283ZM68.9945 68.2158C69.0659 68.4825 68.9076 68.7567 68.6409 68.8283L68.8995 69.7942C69.6996 69.5797 70.1746 68.757 69.9604 67.9567L68.9945 68.2158ZM67.8694 64.0134L68.9945 68.2158L69.9604 67.9567L68.8353 63.7543L67.8694 64.0134ZM67.2572 63.6599C67.5239 63.5883 67.798 63.7466 67.8694 64.0134L68.8353 63.7543C68.621 62.9541 67.7987 62.4793 66.9986 62.6939L67.2572 63.6599ZM66.1177 57.4706C66.5152 58.9554 66.3593 60.4568 65.7765 61.7582L66.689 62.1668C67.3624 60.6633 67.5427 58.9264 67.0836 57.2116L66.1177 57.4706ZM58.247 52.9265C61.6758 52.007 65.1996 54.0415 66.1177 57.4706L67.0836 57.2116C66.0227 53.2489 61.9506 50.8979 57.9884 51.9605L58.247 52.9265ZM27.3321 61.2171L58.247 52.9265L57.9884 51.9605L27.0734 60.2511L27.3321 61.2171ZM22.786 69.0911C21.8679 65.6619 23.9033 62.1366 27.3321 61.2171L27.0734 60.2511C23.1112 61.3137 20.7592 65.3874 21.8201 69.3501L22.786 69.0911ZM25.2236 72.6335C24.0687 71.7982 23.1835 70.5759 22.786 69.0911L21.8201 69.3501C22.2792 71.0649 23.3032 72.4789 24.6375 73.444L25.2236 72.6335ZM24.6375 73.444C24.7126 73.4983 24.7838 73.6376 24.7664 73.8174C24.749 73.9963 24.668 74.0459 24.6327 74.0553L24.8914 75.0213C25.4619 74.8683 25.7191 74.3519 25.7616 73.9135C25.804 73.476 25.6566 72.9467 25.2236 72.6335L24.6375 73.444ZM66.9986 62.6939C66.9633 62.7033 66.8683 62.7009 66.7639 62.5547C66.659 62.4077 66.6511 62.2514 66.689 62.1668L65.7765 61.7582C65.5579 62.2461 65.6947 62.7783 65.95 63.136C66.2058 63.4944 66.6866 63.8129 67.2572 63.6599L66.9986 62.6939Z" fill="black"/>
<defs>
<radialGradient id="paint0_radial_22_391" cx="0" cy="0" r="1" gradientUnits="userSpaceOnUse" gradientTransform="translate(42.3142 23.5087) rotate(127.988) scale(41.7287 40.0209)">
<stop stop-color="#ED7A67"/>
<stop offset="0.173519" stop-color="#FFCAC1"/>
<stop offset="0.470318" stop-color="#ED7A67"/>
<stop offset="1" stop-color="#E04025"/>
</radialGradient>
</defs>
</svg>
