<svg width="155" height="163" viewBox="0 0 155 163" fill="none" xmlns="http://www.w3.org/2000/svg">
<path d="M120.059 108.459L123.855 116.114L115.347 116.831L113.089 117.021L113.559 119.238L115.333 127.597L106.916 126.174L104.68 125.796L104.585 128.061L104.226 136.599L96.4279 133.125L94.3559 132.202L93.7005 134.374L91.2318 142.553L84.5421 137.248L82.7641 135.838L81.5893 137.779L77.1663 145.085L72.0052 138.282L70.6333 136.474L69.0126 138.062L62.9136 144.037L59.605 136.164L58.7256 134.071L56.7609 135.206L49.369 139.475L48.1207 131.025L47.7891 128.78L45.604 129.39L37.3833 131.686L38.2742 123.189L38.5107 120.933L36.243 120.98L27.7095 121.157L30.684 113.148L31.4735 111.022L29.266 110.504L20.9557 108.552L25.8273 101.534L27.1198 99.6719L25.1112 98.6205L17.5462 94.6607L24.0089 89.0756L25.7233 87.594L24.0397 86.0763L17.6957 80.3574L25.3431 76.5564L27.372 75.548L26.1187 73.6594L21.3947 66.5407L29.7459 64.7627L31.9622 64.2908L31.2176 62.1498L28.4109 54.0789L36.9407 54.4353L39.2054 54.5299L39.0162 52.2706L38.3032 43.7552L46.4755 46.2232L48.6463 46.8787L49.0246 44.6427L50.4497 36.2182L57.7513 40.6422L59.6916 41.8179L60.6139 39.7455L64.0872 31.9413L70.0597 38.0432L71.6472 39.6652L73.056 37.8868L78.3588 31.193L82.6274 38.5897L83.7619 40.5557L85.5689 39.1834L92.3679 34.0202L94.6645 42.2472L95.2748 44.4334L97.3662 43.5539L105.235 40.2452L105.415 48.7862L105.463 51.0548L107.707 50.7235L116.15 49.4771L114.202 57.7955L113.685 60.0039L115.941 60.2416L124.429 61.136L120.475 68.7091L119.426 70.7187L121.551 71.51L129.552 74.4895L123.839 80.841L122.324 82.526L124.185 83.8208L131.195 88.6986L124.083 93.429L122.197 94.6839L123.677 96.4005L129.255 102.87L121.192 105.682L119.053 106.428L120.059 108.459Z" fill="#F9D025" stroke="white" stroke-width="4"/>
<path d="M41.6145 103.133L43.7173 95.0693L46.0561 95.6776L43.9534 103.741L41.6145 103.133ZM45.1916 94.2042C44.8421 94.1133 44.5779 93.9155 44.3991 93.6106C44.2202 93.3058 44.1763 92.9786 44.2674 92.6292C44.3609 92.2708 44.559 92.0066 44.8617 91.8366C45.1667 91.6576 45.4939 91.6136 45.8434 91.7045C46.2019 91.7977 46.466 91.9956 46.6359 92.2981C46.8172 92.594 46.861 92.9211 46.7676 93.2795C46.6765 93.6289 46.4784 93.8931 46.1733 94.0721C45.8773 94.2534 45.55 94.2975 45.1916 94.2042ZM46.7139 104.459L48.8167 96.3956L50.9136 96.941L50.6823 97.828C51.0671 97.5263 51.4959 97.3317 51.9684 97.2441C52.441 97.1565 52.9193 97.1757 53.4032 97.3015C53.9767 97.4507 54.4736 97.7282 54.8941 98.1342C55.3258 98.5335 55.6251 99.0371 55.7919 99.6449C55.97 100.246 55.9621 100.919 55.7682 101.662L54.5101 106.487L52.1712 105.879L53.3488 101.363C53.4656 100.915 53.4351 100.481 53.2574 100.062C53.0797 99.6427 52.7399 99.3678 52.2381 99.2373C51.8349 99.1324 51.4357 99.1769 51.0407 99.3707C50.657 99.5579 50.3892 99.9427 50.2373 100.525L49.0528 105.068L46.7139 104.459ZM59.673 108.117C59.1264 107.975 58.5941 107.741 58.0763 107.415C57.5674 107.091 57.1959 106.736 56.9617 106.35L58.1145 104.296C58.2809 104.722 58.5575 105.129 58.9445 105.516C59.3403 105.906 59.7847 106.166 60.2776 106.294C60.6091 106.38 60.863 106.379 61.0391 106.291C61.2241 106.205 61.34 106.073 61.3867 105.893C61.4405 105.687 61.4028 105.52 61.2739 105.39C61.1472 105.252 61.0114 105.131 60.8665 105.026L59.8495 104.302C59.6243 104.139 59.3726 103.93 59.0944 103.675C58.8162 103.421 58.597 103.106 58.4368 102.729C58.2856 102.355 58.2766 101.913 58.4098 101.402C58.5313 100.936 58.7599 100.536 59.0957 100.203C59.4315 99.8692 59.8505 99.6386 60.3526 99.5109C60.8661 99.3765 61.4365 99.3909 62.0638 99.5541C62.6462 99.7056 63.1627 99.9452 63.6131 100.273C64.0725 100.603 64.3871 100.919 64.557 101.221L63.4656 103.205C63.2638 102.732 62.9791 102.337 62.6117 102.021C62.2555 101.699 61.8893 101.489 61.5129 101.391C61.2262 101.317 61.0004 101.32 60.8356 101.402C60.6708 101.483 60.5686 101.6 60.5288 101.752C60.4985 101.869 60.5129 101.997 60.5721 102.137C60.6427 102.27 60.7783 102.41 60.9789 102.558L61.9258 103.221C62.2024 103.408 62.4876 103.635 62.7814 103.903C63.0842 104.173 63.3145 104.5 63.4723 104.886C63.6325 105.262 63.6401 105.728 63.4953 106.284C63.292 107.063 62.8349 107.624 62.1239 107.965C61.4219 108.309 60.6049 108.359 59.673 108.117ZM64.1377 113.296L67.2918 101.201L69.308 101.725L69.1012 102.518C69.4967 102.286 69.9283 102.135 70.3962 102.066C70.8731 101.998 71.3669 102.031 71.8777 102.164C72.6304 102.36 73.2612 102.73 73.7701 103.273C74.2813 103.808 74.6321 104.445 74.8223 105.183C75.0215 105.924 75.0194 106.684 74.8162 107.463C74.6129 108.243 74.2434 108.907 73.7078 109.457C73.1835 110 72.5664 110.385 71.8566 110.611C71.1468 110.838 70.4155 110.854 69.6628 110.658C69.2327 110.546 68.8514 110.375 68.519 110.145C68.1844 109.924 67.8984 109.663 67.661 109.362L66.4765 113.905L64.1377 113.296ZM69.9302 108.532C70.3244 108.634 70.7086 108.629 71.0826 108.516C71.4566 108.402 71.7809 108.205 72.0555 107.922C72.3391 107.642 72.5335 107.3 72.6386 106.897C72.7438 106.494 72.741 106.101 72.6303 105.718C72.5285 105.337 72.3421 105.007 72.0709 104.726C71.7997 104.445 71.4669 104.253 71.0726 104.15C70.6784 104.048 70.2942 104.053 69.9202 104.166C69.5462 104.28 69.2174 104.476 68.9338 104.756C68.6592 105.039 68.4693 105.382 68.3642 105.785C68.259 106.188 68.2573 106.58 68.3591 106.961C68.4698 107.343 68.6607 107.675 68.9319 107.956C69.2031 108.237 69.5359 108.429 69.9302 108.532ZM76.1263 112.109L78.2291 104.046L80.5679 104.654L78.4652 112.718L76.1263 112.109ZM79.7034 103.181C79.3539 103.09 79.0897 102.892 78.9109 102.587C78.732 102.282 78.6881 101.955 78.7792 101.606C78.8727 101.247 79.0708 100.983 79.3735 100.813C79.6785 100.634 80.0057 100.59 80.3552 100.681C80.7137 100.774 80.9778 100.972 81.1478 101.274C81.329 101.57 81.3728 101.897 81.2794 102.256C81.1883 102.605 80.9902 102.869 80.6851 103.048C80.3891 103.23 80.0618 103.274 79.7034 103.181ZM81.2257 113.436L83.3285 105.372L85.4254 105.917L85.0644 107.302C85.4637 106.908 85.9066 106.64 86.3932 106.499C86.8911 106.351 87.4268 106.352 88.0003 106.501L87.9714 108.703C87.8151 108.605 87.6295 108.528 87.4144 108.473C86.7423 108.298 86.143 108.376 85.6163 108.708C85.0919 109.031 84.7246 109.595 84.5143 110.402L83.5646 114.044L81.2257 113.436ZM92.2202 116.582C91.3151 116.347 90.5667 115.951 89.9748 115.395C89.3829 114.84 88.9796 114.185 88.7648 113.43C88.5524 112.667 88.5571 111.86 88.7791 111.009C88.9917 110.193 89.368 109.521 89.9079 108.992C90.4501 108.454 91.0873 108.084 91.8193 107.882C92.5603 107.682 93.3206 107.684 94.1002 107.887C94.8977 108.094 95.5623 108.463 96.0937 108.993C96.6276 109.515 96.9919 110.136 97.1868 110.856C97.3907 111.579 97.3886 112.339 97.1807 113.137L96.9669 113.956L92.0473 112.677C91.8232 112.619 91.6117 112.549 91.4126 112.469C91.2135 112.388 91.0156 112.303 90.8188 112.214C90.7862 112.779 90.936 113.287 91.2684 113.737C91.6121 114.181 92.1155 114.488 92.7786 114.661C93.2894 114.794 93.7733 114.81 94.2303 114.708C94.6962 114.61 95.0989 114.442 95.4382 114.205L95.4022 116.434C94.9195 116.634 94.4029 116.743 93.8524 116.763C93.3109 116.785 92.7668 116.724 92.2202 116.582ZM91.133 110.789C91.6068 110.807 92.0587 110.872 92.4889 110.983L93.9137 111.354C94.1646 111.419 94.3997 111.49 94.6191 111.566C94.8384 111.642 95.0408 111.729 95.2263 111.825C95.218 111.306 95.0709 110.861 94.7849 110.49C94.5078 110.121 94.1094 109.869 93.5897 109.734C93.0968 109.606 92.6293 109.638 92.1871 109.829C91.7563 110.013 91.4049 110.333 91.133 110.789ZM50.0986 120.839L52.2014 112.775L54.2983 113.32L54.067 114.207C54.4518 113.906 54.8806 113.711 55.3531 113.624C55.8347 113.538 56.3084 113.556 56.7744 113.677C57.2493 113.801 57.6717 114.016 58.0415 114.323C58.4112 114.629 58.6904 115.008 58.8791 115.459C59.2908 115.164 59.7554 114.979 60.2728 114.903C60.7902 114.827 61.3222 114.86 61.8688 115.002C62.4423 115.152 62.9449 115.426 63.3766 115.825C63.8107 116.216 64.118 116.707 64.2984 117.299C64.4812 117.882 64.478 118.537 64.2888 119.263L63.0026 124.195L60.6637 123.587L61.8623 118.99C61.9745 118.56 61.9483 118.147 61.7838 117.75C61.6194 117.353 61.2997 117.093 60.8247 116.97C60.5738 116.904 60.3155 116.904 60.0498 116.969C59.7954 117.027 59.565 117.159 59.3585 117.363C59.1634 117.561 59.0191 117.839 58.9256 118.198L57.72 122.821L55.3812 122.213L56.5798 117.616C56.6545 117.33 56.6664 117.046 56.6153 116.765C56.5732 116.486 56.46 116.241 56.2757 116.03C56.1003 115.822 55.8558 115.677 55.5422 115.596C55.2913 115.53 55.033 115.53 54.7673 115.595C54.5129 115.653 54.2824 115.785 54.076 115.989C53.8808 116.187 53.7365 116.466 53.643 116.824L52.4375 121.447L50.0986 120.839ZM69.6936 126.222C68.7886 125.987 68.0401 125.591 67.4482 125.036C66.8563 124.48 66.453 123.825 66.2383 123.07C66.0258 122.307 66.0306 121.5 66.2525 120.649C66.4651 119.834 66.8414 119.161 67.3813 118.632C67.9236 118.094 68.5607 117.724 69.2927 117.522C70.0337 117.322 70.794 117.324 71.5736 117.527C72.3712 117.734 73.0357 118.103 73.5672 118.634C74.101 119.155 74.4654 119.776 74.6603 120.496C74.8641 121.219 74.8621 121.979 74.6541 122.777L74.4404 123.596L69.5207 122.317C69.2967 122.259 69.0851 122.189 68.886 122.109C68.6869 122.028 68.489 121.943 68.2922 121.854C68.2596 122.419 68.4095 122.927 68.7419 123.377C69.0855 123.821 69.5889 124.129 70.2521 124.301C70.7628 124.434 71.2467 124.45 71.7037 124.349C72.1697 124.25 72.5723 124.082 72.9116 123.845L72.8757 126.074C72.393 126.274 71.8764 126.383 71.3259 126.403C70.7843 126.425 70.2403 126.365 69.6936 126.222ZM68.6065 120.429C69.0802 120.447 69.5322 120.512 69.9623 120.624L71.3871 120.994C71.638 121.059 71.8731 121.13 72.0925 121.206C72.3119 121.282 72.5143 121.369 72.6997 121.465C72.6915 120.946 72.5443 120.501 72.2583 120.13C71.9813 119.761 71.5829 119.509 71.0631 119.374C70.5703 119.246 70.1028 119.278 69.6606 119.469C69.2297 119.653 68.8783 119.973 68.6065 120.429ZM78.4404 123.474L79.9541 115.688L82.6962 116.401L80.2147 123.936L78.4404 123.474ZM78.101 128.409C77.7067 128.306 77.4057 128.085 77.198 127.744C77.0016 127.396 76.9548 127.025 77.0576 126.631C77.1604 126.237 77.3812 125.94 77.7202 125.741C78.0704 125.536 78.4426 125.484 78.8369 125.587C79.2312 125.689 79.5266 125.914 79.723 126.262C79.9307 126.603 79.9831 126.971 79.8803 127.365C79.7775 127.759 79.551 128.059 79.2008 128.265C78.8619 128.463 78.4952 128.512 78.101 128.409Z" fill="black"/>
<path d="M141.344 5.76002L138.026 19.0589L147.101 26.4852L135.552 24.4769L127.675 35.6904L130.993 22.3915L121.918 14.9652L133.467 16.9735L141.344 5.76002Z" fill="white"/>
<path d="M141.344 5.76002L138.026 19.0589L147.101 26.4852L135.552 24.4769L127.675 35.6904L130.993 22.3915L121.918 14.9652L133.467 16.9735L141.344 5.76002Z" fill="white"/>
<path d="M148.355 38.4958L146.8 45.0334L151.546 48.8069L145.589 47.6843L141.668 53.1398L143.223 46.6021L138.477 42.8286L144.434 43.9512L148.355 38.4958Z" fill="white"/>
<path d="M148.355 38.4958L146.8 45.0334L151.546 48.8069L145.589 47.6843L141.668 53.1398L143.223 46.6021L138.477 42.8286L144.434 43.9512L148.355 38.4958Z" fill="white"/>
<path d="M82.0275 57.4889L82.8852 54.2882M72.0529 58.9573L70.3961 56.0876M85.3077 81.9151L86.9645 84.7848M65.794 66.8613L62.5933 66.0037M91.3999 73.7224L94.6007 74.58M90.16 63.809L93.0297 62.1522M67.2022 77.0637L64.3325 78.7206M70.4569 86.755L78.8066 88.9923M70.9163 90.6069L76.4828 92.0984M81.3437 62.8244C76.7322 61.5887 71.9922 64.3254 70.7566 68.9368C70.3037 70.6269 70.3845 72.3343 70.8955 73.8801C71.6813 76.2572 72.0739 77.4449 72.1196 77.619C72.5262 79.1672 72.512 78.6557 72.195 80.2247C72.1593 80.4011 72.089 80.6637 71.9484 81.1885C71.7425 81.957 72.1986 82.747 72.9671 82.953L78.5336 84.4445C79.3022 84.6504 80.0922 84.1943 80.2981 83.4258C80.4388 82.901 80.5091 82.6384 80.5664 82.4679C81.0764 80.9506 80.8075 81.3861 81.9338 80.2487C82.0604 80.1208 82.9953 79.2888 84.8644 77.6231C86.0799 76.5399 87.0035 75.1016 87.4564 73.4115C88.692 68.8001 85.9551 64.06 81.3437 62.8244Z" stroke="black" stroke-width="2" stroke-linecap="round" stroke-linejoin="round"/>
</svg>
