<svg width="175" height="172" viewBox="0 0 175 172" fill="none" xmlns="http://www.w3.org/2000/svg">
<rect x="2.22434" y="2.74854" width="92.0165" height="92.0963" rx="4.5" transform="matrix(0.994481 0.104918 -0.104744 0.994499 78.3187 58.7122)" fill="#F5818B" stroke="white" stroke-width="5"/>
<rect x="3.05808" y="1.77283" width="92.021" height="92.0918" rx="4.5" transform="matrix(0.96633 -0.257306 0.256902 0.966437 25.745 45.746)" fill="white" stroke="#E04025" stroke-width="5"/>
<path d="M72.3746 112.083C71.8252 112.215 71.2454 112.258 70.635 112.213C70.0337 112.166 69.539 112.027 69.1508 111.796L69.2037 109.442C69.5508 109.74 69.9861 109.969 70.5098 110.13C71.0426 110.288 71.5566 110.308 72.0519 110.19C72.3852 110.11 72.6088 109.99 72.7229 109.83C72.8459 109.667 72.886 109.496 72.8431 109.316C72.7937 109.109 72.6817 108.978 72.5072 108.925C72.3305 108.862 72.1535 108.819 71.9764 108.794L70.7386 108.633C70.4628 108.594 70.1424 108.528 69.7774 108.434C69.4124 108.34 69.0708 108.165 68.7525 107.907C68.4432 107.648 68.2274 107.262 68.1051 106.748C67.9935 106.28 68.0075 105.82 68.1473 105.367C68.287 104.915 68.5486 104.515 68.9319 104.166C69.3222 103.807 69.8325 103.552 70.4629 103.401C71.0483 103.261 71.6168 103.23 72.1684 103.308C72.729 103.384 73.1553 103.515 73.4474 103.703L73.4157 105.966C73.015 105.643 72.5784 105.428 72.1057 105.322C71.6399 105.205 71.2179 105.191 70.8396 105.282C70.5514 105.351 70.3537 105.46 70.2465 105.609C70.1393 105.758 70.104 105.91 70.1405 106.063C70.1684 106.18 70.2413 106.286 70.3593 106.382C70.4841 106.466 70.6698 106.526 70.9164 106.563L72.0635 106.703C72.3955 106.738 72.754 106.805 73.1392 106.903C73.5334 107 73.8907 107.181 74.2111 107.447C74.5294 107.704 74.7551 108.112 74.8881 108.671C75.0748 109.454 74.9345 110.164 74.4671 110.799C74.0088 111.432 73.3112 111.86 72.3746 112.083ZM76.811 110.739L73.7206 97.7688L76.0712 97.2078L77.375 102.68C77.5945 102.323 77.8717 102.028 78.2066 101.796C78.5484 101.552 78.931 101.38 79.3543 101.279C79.9307 101.142 80.4998 101.153 81.0617 101.314C81.6304 101.464 82.1312 101.768 82.564 102.226C83.0037 102.674 83.3126 103.271 83.4908 104.019L84.6464 108.869L82.2958 109.43L81.2142 104.89C81.1069 104.44 80.8763 104.071 80.5224 103.785C80.1685 103.498 79.7394 103.415 79.235 103.535C78.8297 103.632 78.4982 103.858 78.2405 104.215C77.9897 104.561 77.934 105.026 78.0735 105.611L79.1616 110.178L76.811 110.739ZM89.4704 108.003C88.903 108.139 88.3349 108.131 87.7662 107.982C87.1953 107.823 86.69 107.52 86.2503 107.073C85.8175 106.614 85.512 106.011 85.3339 105.264L84.1782 100.413L86.5288 99.8523L87.6105 104.392C87.7178 104.842 87.9484 105.211 88.3023 105.498C88.6652 105.782 89.0943 105.865 89.5896 105.747C89.9949 105.651 90.3208 105.42 90.5674 105.057C90.8208 104.682 90.882 104.22 90.7511 103.671L89.663 99.1043L92.0137 98.5432L93.9452 106.65L91.8107 107.159L91.6079 106.308C91.4055 106.737 91.1163 107.101 90.7402 107.4C90.371 107.688 89.9477 107.889 89.4704 108.003ZM96.6783 105.997L95.191 99.7554L93.678 100.117L93.2337 98.252L94.7873 97.8812L94.4461 96.4491C94.2765 95.7376 94.2895 95.0729 94.485 94.4551C94.6804 93.8373 95.0309 93.3109 95.5365 92.8761C96.04 92.4323 96.6699 92.1201 97.4265 91.9396C97.8768 91.8321 98.323 91.7875 98.7652 91.8057C99.2074 91.8239 99.6063 91.9 99.9619 92.0341C100.172 91.7556 100.43 91.5226 100.738 91.3349C101.052 91.1362 101.403 90.9906 101.79 90.8981C102.114 90.8207 102.425 90.7848 102.721 90.7902C103.026 90.7935 103.294 90.839 103.524 90.9268L103.519 92.9415C103.169 92.6727 102.815 92.5813 102.454 92.6673C102.175 92.7339 101.977 92.8811 101.86 93.109C101.752 93.3347 101.739 93.6186 101.82 93.9609L102.326 96.0821L105.311 95.3695L104.152 90.5057L106.503 89.9447L109.593 102.915L107.243 103.476L105.755 97.234L102.81 97.9369L104.298 104.179L101.947 104.74L100.46 98.4979L97.5417 99.1944L99.0289 105.436L96.6783 105.997ZM97.0569 97.3396L100.056 96.6238L99.5635 94.5566C99.5399 94.4576 99.5197 94.3529 99.5029 94.2427C99.484 94.1234 99.4677 93.975 99.454 93.7974C99.0225 93.6244 98.559 93.5969 98.0637 93.7152C97.5233 93.8441 97.1318 94.1184 96.8891 94.5381C96.6554 94.9556 96.6073 95.4526 96.7446 96.029L97.0569 97.3396ZM115.672 101.75C114.762 101.967 113.915 101.969 113.132 101.756C112.348 101.543 111.684 101.155 111.14 100.589C110.594 100.015 110.219 99.3005 110.015 98.4448C109.82 97.6252 109.836 96.8549 110.064 96.1342C110.29 95.4044 110.679 94.7785 111.23 94.2566C111.791 93.7326 112.463 93.377 113.246 93.19C114.048 92.9987 114.808 93.0125 115.526 93.2313C116.243 93.4411 116.856 93.8183 117.367 94.3628C117.886 94.9052 118.241 95.5772 118.432 96.3788L118.629 97.2029L113.684 98.383C113.459 98.4368 113.24 98.4749 113.026 98.4973C112.813 98.5197 112.598 98.5376 112.382 98.551C112.619 99.0656 112.99 99.4436 113.495 99.6848C114.006 99.9149 114.596 99.9504 115.262 99.7914C115.775 99.6688 116.21 99.4556 116.566 99.1517C116.931 98.8457 117.207 98.5084 117.396 98.1398L118.411 100.125C118.079 100.528 117.674 100.867 117.197 101.143C116.73 101.416 116.221 101.619 115.672 101.75ZM111.99 97.1453C112.417 96.9387 112.846 96.7839 113.279 96.6807L114.711 96.3389C114.963 96.2787 115.204 96.2308 115.433 96.1951C115.663 96.1593 115.882 96.1403 116.091 96.1381C115.84 95.6839 115.501 95.3603 115.074 95.167C114.656 94.9716 114.186 94.9363 113.664 95.0609C113.168 95.1792 112.77 95.4265 112.47 95.8028C112.176 96.168 112.016 96.6155 111.99 97.1453Z" fill="black"/>
<g clip-path="url(#clip0_22_346)">
<path d="M97.5962 81.2215L101.591 74.7254M101.591 74.7254L95.1004 70.7271M101.591 74.7254L94.6007 76.3906C89.7749 77.5402 84.9316 74.5568 83.7829 69.7269C82.6343 64.897 77.791 61.9136 72.9652 63.0632L65.9748 64.7285M90.9407 53.2366L97.4314 57.2348M97.4314 57.2348L93.4365 63.7309M97.4314 57.2348L90.441 58.9001C88.4739 59.3687 86.8134 60.4517 85.6141 61.8974M70.1345 82.219L77.1248 80.5538C79.0919 80.0852 80.7523 79.0015 81.9516 77.5558" stroke="black" stroke-width="3" stroke-linecap="round" stroke-linejoin="round"/>
</g>
<path d="M32.7211 34.5953L30.2872 24.896L35.0717 23.6934L35.3475 24.7927L31.7915 25.6865L32.3107 27.7557L35.1125 27.0514L35.3883 28.1507L32.5865 28.8549L33.6737 33.1873L37.2297 32.2934L37.5056 33.3927L32.7211 34.5953ZM41.3094 32.7803L36.3406 26.8115L37.6661 26.4783L39.6838 28.9499C39.8691 29.1707 40.0462 29.3896 40.2153 29.6068C40.3843 29.824 40.5633 30.096 40.7522 30.4228C40.7716 30.0436 40.8046 29.7184 40.851 29.447C40.9029 29.1667 40.9556 28.8899 41.0093 28.6167L41.6316 25.4816L42.8708 25.1701L41.3094 32.7803ZM48.4533 30.7784C47.7781 30.9482 47.1332 30.9499 46.5186 30.7835C45.9113 30.6154 45.3883 30.3115 44.9496 29.8719C44.5162 29.4232 44.2193 28.8792 44.0589 28.2397C43.9056 27.629 43.9141 27.0388 44.0842 26.469C44.2526 25.8921 44.5476 25.394 44.9694 24.9748C45.3984 24.5539 45.9146 24.2675 46.518 24.1159C47.1143 23.966 47.6963 23.9725 48.2641 24.1352C48.8301 24.2909 49.3208 24.5723 49.7361 24.9797C50.1515 25.387 50.4358 25.896 50.589 26.5067L50.708 26.9809L46.4838 28.0427C46.2971 28.0896 46.1049 28.1303 45.9073 28.1647C45.7097 28.199 45.5139 28.2253 45.32 28.2436C45.5432 28.7985 45.9226 29.2148 46.4582 29.4927C47.001 29.7687 47.5777 29.8299 48.1883 29.6765C48.5978 29.5735 48.9551 29.3844 49.2602 29.1091C49.5654 28.8339 49.7869 28.5147 49.9249 28.1516L50.5808 29.3959C50.335 29.725 50.029 30.0119 49.6627 30.2568C49.3019 30.4926 48.8988 30.6665 48.4533 30.7784ZM45.0902 27.465C45.4619 27.3028 45.8453 27.172 46.2405 27.0727L48.3849 26.5337C48.5429 26.494 48.6992 26.4624 48.8536 26.4388C49.0135 26.4063 49.1742 26.3773 49.3359 26.352C49.1091 25.8743 48.754 25.5244 48.2706 25.3022C47.7853 25.0728 47.2877 25.0223 46.7776 25.1505C46.2532 25.2823 45.8376 25.5739 45.5308 26.0252C45.2223 26.4694 45.0754 26.9493 45.0902 27.465ZM52.9916 29.5002L51.369 23.034L52.4466 22.7632L52.7441 23.9487C52.8784 23.5101 53.108 23.1316 53.4329 22.8132C53.7559 22.4876 54.1797 22.2588 54.7041 22.127L55.2871 23.2178C55.1398 23.209 54.9763 23.2272 54.7967 23.2723C54.1933 23.424 53.757 23.7399 53.488 24.2199C53.2172 24.6928 53.171 25.2849 53.3495 25.9962L54.1554 29.2077L52.9916 29.5002ZM58.3826 31.5822L59.4347 26.8726L55.313 22.0427L56.6277 21.7123L58.7101 24.1676C58.8953 24.3884 59.076 24.6064 59.2523 24.8218C59.4285 25.0372 59.6174 25.3029 59.8189 25.6189C59.8545 25.2433 59.8955 24.9198 59.9419 24.6485C59.9938 24.3681 60.0537 24.0896 60.1217 23.8128L60.8195 20.6586L62.0587 20.3472L59.6434 31.2653L58.3826 31.5822ZM67.3145 25.9918C66.7255 26.1398 66.1497 26.128 65.5873 25.9562C65.023 25.7772 64.5306 25.4733 64.1098 25.0444C63.6963 24.6137 63.4129 24.093 63.2596 23.4823C63.1064 22.8716 63.1103 22.2787 63.2715 21.7035C63.4398 21.1266 63.7313 20.6294 64.1459 20.2121C64.5587 19.7875 65.0596 19.5012 65.6487 19.3531C66.0726 19.2466 66.4902 19.2218 66.9016 19.2788C67.313 19.3358 67.6958 19.4611 68.0498 19.6547L66.8843 15.0098L68.0481 14.7173L70.6442 25.0632L69.5666 25.3341L69.353 24.4827C69.1377 24.8423 68.8542 25.158 68.5023 25.4297C68.1559 25.6925 67.7599 25.8798 67.3145 25.9918ZM67.2004 24.8977C67.6099 24.7948 67.9546 24.6012 68.2346 24.317C68.5199 24.0238 68.7172 23.6839 68.8265 23.2975C68.9411 22.9021 68.9461 22.496 68.8415 22.0793C68.737 21.6626 68.5418 21.3107 68.2559 21.0235C67.9754 20.7274 67.6411 20.5212 67.2529 20.4049C66.8702 20.2796 66.4741 20.2684 66.0646 20.3714C65.6551 20.4743 65.3077 20.6724 65.0223 20.9656C64.7423 21.2498 64.545 21.5897 64.4304 21.9851C64.3212 22.3715 64.3189 22.7731 64.4234 23.1898C64.528 23.6065 64.7205 23.9629 65.001 24.259C65.2869 24.5461 65.6212 24.7524 66.004 24.8776C66.3921 24.9939 66.7909 25.0006 67.2004 24.8977ZM75.4975 23.935C74.9084 24.083 74.3327 24.0712 73.7702 23.8994C73.206 23.7204 72.7135 23.4165 72.2928 22.9876C71.8792 22.5569 71.5958 22.0362 71.4426 21.4255C71.2893 20.8148 71.2933 20.2219 71.4545 19.6467C71.6228 19.0698 71.9143 18.5726 72.3289 18.1553C72.7416 17.7307 73.2426 17.4444 73.8317 17.2963C74.2771 17.1844 74.7145 17.1623 75.1439 17.23C75.5805 17.2959 75.9794 17.4401 76.3407 17.6624L76.127 16.811L77.2046 16.5402L78.8272 23.0064L77.7496 23.2772L77.5359 22.4259C77.3207 22.7855 77.0372 23.1012 76.6853 23.3729C76.3388 23.6357 75.9429 23.823 75.4975 23.935ZM75.3833 22.8409C75.7928 22.738 76.1376 22.5444 76.4175 22.2602C76.7029 21.9669 76.9002 21.6271 77.0094 21.2407C77.1241 20.8453 77.1291 20.4392 77.0245 20.0225C76.9199 19.6058 76.7247 19.2539 76.4388 18.9667C76.1583 18.6706 75.824 18.4644 75.4359 18.3481C75.0531 18.2228 74.657 18.2116 74.2475 18.3146C73.8381 18.4175 73.4906 18.6156 73.2053 18.9088C72.9253 19.193 72.728 19.5328 72.6134 19.9283C72.5041 20.3147 72.5018 20.7163 72.6064 21.133C72.7109 21.5497 72.9035 21.9061 73.184 22.2022C73.4699 22.4893 73.8042 22.6955 74.1869 22.8208C74.5751 22.9371 74.9739 22.9438 75.3833 22.8409ZM81.4313 25.7889L82.4834 21.0792L78.3617 16.2494L79.6763 15.9189L81.7588 18.3742C81.944 18.595 82.1247 18.8131 82.301 19.0285C82.4772 19.2439 82.6661 19.5095 82.8675 19.8255C82.9031 19.4499 82.9442 19.1265 82.9906 18.8551C83.0425 18.5748 83.1024 18.2962 83.1704 18.0194L83.8682 14.8653L85.1074 14.5538L82.6921 25.472L81.4313 25.7889ZM91.5707 19.8033L89.1369 10.104L90.3653 9.79519L92.7992 19.4945L91.5707 19.8033ZM92.7233 12.6395C92.9456 12.1559 93.087 11.6239 93.1476 11.0435C93.2153 10.4613 93.1627 9.8253 92.9896 9.13557L94.1534 8.84305C94.3066 9.45375 94.3656 10.0538 94.3302 10.6432C94.3001 11.2235 94.1956 11.7806 94.0164 12.3145L92.7233 12.6395ZM98.2252 18.1306L96.6026 11.6644L97.6802 11.3936L97.9128 12.3204C98.0615 11.9088 98.2938 11.5716 98.6098 11.3089C98.9311 11.0372 99.2929 10.8508 99.6952 10.7496C100.133 10.6395 100.562 10.6426 100.981 10.7588C101.397 10.8679 101.763 11.0777 102.078 11.3881C102.232 10.9369 102.482 10.5647 102.829 10.2714C103.182 9.97628 103.582 9.77275 104.027 9.6608C104.516 9.53801 104.99 9.54101 105.45 9.6698C105.917 9.79679 106.321 10.0388 106.663 10.396C107.01 10.7441 107.254 11.1984 107.395 11.7588L108.355 15.5846L107.191 15.8771L106.266 12.1914C106.118 11.6022 105.837 11.1992 105.424 10.9823C105.016 10.7565 104.593 10.6986 104.155 10.8088C103.882 10.8774 103.631 11.0052 103.403 11.1924C103.183 11.3777 103.022 11.6205 102.922 11.9207C102.829 12.219 102.834 12.5766 102.939 12.9933L103.872 16.7114L102.708 17.0039L101.783 13.3182C101.68 12.9086 101.513 12.5917 101.281 12.3674C101.056 12.1413 100.798 11.9961 100.507 11.9318C100.222 11.8585 99.9423 11.8561 99.6693 11.9247C99.4035 11.9915 99.1566 12.1185 98.9286 12.3057C98.7078 12.491 98.5473 12.7338 98.4469 13.0339C98.3466 13.3341 98.3496 13.6962 98.456 14.1201L99.389 17.8381L98.2252 18.1306Z" fill="black"/>
<path d="M5.24532 113.472C5.41551 112.947 5.12758 112.383 4.60222 112.213C4.07686 112.043 3.513 112.331 3.34282 112.857L5.24532 113.472ZM11.5851 144.759L12.2188 143.986L11.5851 144.759ZM34.2611 134.398L33.2632 134.334L34.2611 134.398ZM41.4399 165.506L35.5143 155.597L29.8952 165.687L41.4399 165.506ZM3.34282 112.857C2.24478 116.247 1.57359 122.261 2.43079 128.462C3.28799 134.662 5.70024 141.231 10.9513 145.533L12.2188 143.986C7.51215 140.13 5.2334 134.13 4.41178 128.187C3.59017 122.244 4.25235 116.539 5.24532 113.472L3.34282 112.857ZM10.9513 145.533C13.8087 147.874 16.7773 148.788 19.6336 148.686C22.469 148.585 25.1132 147.486 27.3662 145.937C29.6196 144.389 31.5231 142.363 32.8925 140.331C34.2468 138.322 35.1464 136.205 35.2589 134.462L33.2632 134.334C33.183 135.577 32.4923 137.347 31.2344 139.213C29.9916 141.057 28.2609 142.896 26.234 144.289C24.2067 145.682 21.9244 146.603 19.5629 146.687C17.2223 146.771 14.7235 146.037 12.2188 143.986L10.9513 145.533ZM35.2589 134.462C35.3552 132.97 35.0026 131.457 34.3682 130.194C33.74 128.944 32.7831 127.839 31.5845 127.291C30.3194 126.712 28.882 126.805 27.5688 127.81C26.3202 128.765 25.2417 130.494 24.383 133.074L26.2805 133.705C27.0834 131.293 27.9939 130.002 28.7834 129.398C29.5084 128.844 30.1585 128.838 30.7522 129.11C31.4125 129.412 32.0858 130.107 32.5812 131.093C33.0703 132.066 33.3346 133.227 33.2632 134.334L35.2589 134.462ZM24.383 133.074C22.998 137.235 23.0197 142.584 24.4175 147.782C25.8179 152.991 28.6248 158.145 32.9215 161.883L34.2344 160.374C30.2928 156.944 27.6668 152.164 26.3488 147.262C25.0283 142.351 25.046 137.414 26.2805 133.705L24.383 133.074Z" fill="white"/>
<ellipse cx="8.47358" cy="102.111" rx="2.49225" ry="2.49435" fill="white"/>
<ellipse cx="8.47358" cy="102.111" rx="2.49225" ry="2.49435" fill="white"/>
<ellipse cx="8.47358" cy="102.111" rx="2.49225" ry="2.49435" fill="white"/>
<ellipse cx="12.9597" cy="91.6343" rx="1.9938" ry="1.99548" fill="white"/>
<ellipse cx="12.9597" cy="91.6343" rx="1.9938" ry="1.99548" fill="white"/>
<ellipse cx="12.9597" cy="91.6343" rx="1.9938" ry="1.99548" fill="white"/>
<defs>
<clipPath id="clip0_22_346">
<rect width="43.1157" height="43.1481" fill="white" transform="matrix(0.972778 -0.231738 0.23137 0.972866 57.8203 53.734)"/>
</clipPath>
</defs>
</svg>
